<?xml version="1.0" encoding="utf-8"?>
<!-- Generator: Adobe Illustrator 21.1.0, SVG Export Plug-In . SVG Version: 6.00 Build 0)  -->
<svg version="1.1" id="Layer_1" xmlns="http://www.w3.org/2000/svg" xmlns:xlink="http://www.w3.org/1999/xlink" x="0px" y="1000px"
	 viewBox="0 0 700 221.4" style="enable-background:new 0 0 700 221.4;" xml:space="preserve">
<style type="text/css">
	.st0{fill:#FAA284;}
	.st1{fill:#EF8D72;}
	.st2{fill:#3F535C;}
	.st3{fill:#455B63;}
	.st4{fill:#546E7A;}
	.st5{fill:#DB7C65;}
	.st6{fill:#993434;}
	.st7{fill:#D9EDF9;}
	.st8{fill:#E4F2FB;}
	.st9{fill:#B6E0F4;}
	.st10{fill:#0071BC;}
	.st11{fill:#E9F3FF;}
	.st12{fill:#FBB040;}
	.st13{fill:#CBDAED;}
	.st14{fill:#502F26;}
	.st15{fill:#303A46;}
	.st16{fill:none;stroke:#73C073;stroke-width:2.77;stroke-linecap:square;stroke-miterlimit:10;}
	.st17{fill:#73C073;}
	.st18{fill:#FFFFFF;}
	.st19{fill:#95C8EC;}
	.st20{fill:#FCD156;}
	.st21{fill:#F5844E;}
	.st22{fill:#53B2D3;}
	.st23{fill:#CCCBCA;}
	.st24{fill:#EACC34;}
	.st25{fill:#F26522;}
	.st26{fill:#39B54A;}
	.st27{fill:#FC6142;}
	.st28{fill:none;stroke:#B6E0F4;stroke-width:2;stroke-linecap:square;stroke-miterlimit:10;stroke-dasharray:0.5,5;}
	.st29{fill:#FFD680;}
	.st30{fill:#B7E0F3;}
	.st31{fill:none;stroke:#B6E0F4;stroke-width:2;stroke-linecap:square;stroke-miterlimit:10;stroke-dasharray:0.5124,5.1244;}
	.st32{fill:none;stroke:#B6E0F4;stroke-width:2;stroke-linecap:square;stroke-miterlimit:10;}
	.st33{fill:none;stroke:#B6E0F4;stroke-width:2;stroke-linecap:square;stroke-miterlimit:10;stroke-dasharray:0.4885,4.8845;}
	.st34{fill:none;stroke:#B6E0F4;stroke-width:2;stroke-linecap:square;stroke-miterlimit:10;stroke-dasharray:0.5351,5.3512;}
	.st35{fill:none;stroke:#B6E0F4;stroke-width:2;stroke-linecap:square;stroke-miterlimit:10;stroke-dasharray:0.4479,4.4781;}
	.st36{fill:none;stroke:#B6E0F4;stroke-width:2;stroke-linecap:square;stroke-miterlimit:10;stroke-dasharray:0.5392,5.3917;}
</style>
<g>
	<g>
		<g>
			<rect x="135" y="85" class="st0" width="20.2" height="28"/>
			<path class="st1" d="M135,98.8V85h20.2v16.7C151.1,102.2,142.6,102.6,135,98.8z"/>
		</g>
		<g>
			<g>
				<path class="st2" d="M112.1,46.9c1.1-2.6,2-4.5,2.6-5.8c1.4-3.4,8.1-10.5,24.5-17.8c23.7-10.7,28,5.3,28,5.3
					c-0.4-3.1-1.7-5.6-1.7-5.6c8.3,5.6,3.2,37,3.2,37c-23.4,16-49.9,10.3-49.9,10.3c-1.3-6.6-2.9-15.6-3.8-21.4c-1.7,1.4-3,3-3,3
					c0.5-2.6,1.9-6.3,1.9-6.3L112.1,46.9z"/>
				<path class="st3" d="M131.9,34.1c8.8-6.5,20.8-10.7,29-13c5.1,2.6,6.4,7.4,6.4,7.4c-0.4-3.1-1.7-5.6-1.7-5.6
					c2.1,1.4,3.4,4.6,4.1,8.5C147.5,28.4,131.9,34.1,131.9,34.1z"/>
				<path class="st3" d="M149.3,49.5l17.6-3c0.8,0.1,2.1,0.4,3.3,0.7c-0.4,7-1.4,12.6-1.4,12.6c-23.4,16-49.9,10.3-49.9,10.3
					c-1.2-5.8-2.5-13.6-3.5-19.4c3.8-2.5,13.7-3.9,13.7-3.9L149.3,49.5z"/>
				<path class="st4" d="M161.1,43.7c0,0,5.4-21.5-12.1-22.6C148.9,21.1,162.3,22.9,161.1,43.7z"/>
				<path class="st4" d="M156,43c0,0-1.9-15.7-12.1-19.4C143.9,23.6,152.2,30.3,156,43z"/>
				<path class="st4" d="M149.3,40.8c0,0-5-12.6-22.3-8.8C127,31.9,140.9,30.7,149.3,40.8z"/>
				<path class="st4" d="M140.8,41.8c0,0-8-11-23.8-3C116.9,38.7,130.2,34.1,140.8,41.8z"/>
			</g>
			<g>
				<path class="st0" d="M121.3,65.9l3.2,2.7c0.7-1.6,1.2-3.2,1.6-4.9c2.6-9.6,3.1-16.8,3.1-16.8c20.9-2.9,37.7-0.4,37.7-0.4
					c-0.3,3.2,2,13.3,2,13.3c0,8.6,0.2,23.3-5.7,32c-2.5,3.7-5.7,6.8-11,7.6c-23.2,3.6-29.1-19-29.1-19s-7.3,1.9-8.7-8.7
					C113,62.9,121.3,65.9,121.3,65.9z"/>
				<path class="st1" d="M124.7,77.8c2,5.7,9.3,19.8,25.1,19c8.6-0.5,12.9-6.1,15.8-10c-0.7,1.9-1.5,3.6-2.6,5.1
					c-2.5,3.7-5.7,6.8-11,7.6c-23.2,3.6-29.1-19-29.1-19s-5.6,1.5-8-5.5C119.3,82.2,124.7,77.8,124.7,77.8z"/>
			</g>
			<g>
				<path class="st5" d="M148.9,80c4.5,1.8,6.9-0.3,7.1-2.4c0.1-1.4-0.7-2.6-2-3.1c-2.7-1.1-4.7-5.2-4.7-5.3l0,0c0,1,1,4.6,4.4,6.6
					c0.7,0.4,1.2,0.9,1.2,1.6C154.8,78.5,153.1,80.3,148.9,80L148.9,80z"/>
			</g>
			<g>
				<path class="st2" d="M165.2,57.7l0.2-1.3c-0.3,0-4.9-1.3-10.3-0.8l0,2.1C159.4,56.9,165.1,57.7,165.2,57.7z"/>
			</g>
			<g>
				<path class="st2" d="M132.3,58.4c3.6-1.4,10.3-1.7,10.4-1.7l-0.4-1.9c-0.3,0.1-6.4,0.3-10.4,2.4L132.3,58.4z"/>
			</g>
			<g>
				<path class="st6" d="M151.3,87.2c3.1-0.4,5.7-2.2,5.7-2.3c0.2-0.2,0.3-0.5,0.1-0.7c-0.2-0.2-0.5-0.3-0.7-0.1
					c-0.3,0.2-7.3,5.2-12-0.5c-0.2-0.2-0.5-0.2-0.7-0.1c-0.2,0.2-0.2,0.5-0.1,0.7C146,87,148.8,87.5,151.3,87.2z"/>
			</g>
		</g>
	</g>
	<g>
		<path class="st0" d="M283.9,131.4c-0.3-1-1.7-1.5-2.9-1.1l3.7-1.2c1.3-0.4,2.1-1.5,1.7-2.6c-0.4-1.2-1.7-1.5-2.9-1.1l3.3-1.1
			c1.3-0.4,2-1.7,1.7-2.9c-0.4-1.1-1.7-1.8-3-1.3l-2.8,0.9c1.3-0.4,2-1.7,1.7-2.9c-0.4-1.1-1.7-1.8-3-1.3l-17.5,5.6l2.7-5.5
			c0.7-1.4,0.2-2.9-1-3.5l-0.1,0c-1.2-0.6-2.7,0.1-3.4,1.5l-6.6,10c-2.2,2.6-4.3,5.8-3,10c1.4,4.4,6.1,6.7,10.5,5.3l4.2-1.4l3-1
			l11.9-3.8C283.5,133.6,284.2,132.5,283.9,131.4z"/>
		<path class="st7" d="M187.1,155c0,0,15.7,20.9,27.2,24.5c0,0,14.6,6.2,47.2-35.7c0,0-0.4-8.3-11-12.4L218,154.6
			c-26.7-39.5-32.2-39.7-32.2-39.7S180,138.7,187.1,155z"/>
	</g>
	<g>
		<g>
			<path class="st8" d="M105.1,114.5c0,0,11-4.8,25-7.8c0,0,8,8.2,17.2,7.8c10-0.4,13.7-7.6,13.7-7.6c6.4,1,18.2,3.6,24.5,6.5
				c0,0,3.8,17.5,0,104.7h-70.3c0,0-0.5-40.2-6.4-64.1C108.8,154,107,129.5,105.1,114.5z"/>
			<path class="st9" d="M155.8,125.6l-3.6-2.4l-2.5,3.2l9.4,70.8l-6.4,7.4l-8.7-10.8l1.2-65.6l-3.1-2.9l-1.6,1.8
				c0,0-11.2-7.3-13-19.9c0.8-0.2,1.7-0.4,2.5-0.6c11.2,8.3,21.3,12.3,30.9,0.3c0.5,0.1,1,0.2,1.5,0.2
				C162.5,107.1,163.6,115.1,155.8,125.6z"/>
			<path class="st10" d="M155.7,119.9l-4.3,7.1c0,0,4.4,12.6,6.4,28.8c2.2,17.7,2.2,37.6,2.2,37.6l-6.9,7.8l-6.8-7.9l0.7-65.9
				l-5.9-5.9l6.6-8.5L155.7,119.9z"/>
			<path class="st8" d="M155.2,101.9c0,0-1.1,8.2-7.5,11c0,0-11.8-3.3-12.7-11.1l-7,5.3c0,0,4.4,13.1,13.7,16.5l5.8-8.8l7.9,7.3
				c0,0,7.6-9.2,7-14.9L155.2,101.9z"/>
		</g>
	</g>
	<g>
		<path class="st8" d="M105.4,114.5c0,0-7.1,6.9-35.8,38.9l12.9,21.3L109,154C109,154,115.1,130.7,105.4,114.5z"/>
		<path class="st8" d="M20.4,160c2.1-5,7.9-7.4,12.9-5.3c5,2.1,7.4,7.9,5.3,12.9c-2.1,5-7.9,7.4-12.9,5.3
			C20.7,170.8,18.3,165,20.4,160z"/>
		<path class="st0" d="M17.2,165.4c5.4,4.9,9,4.4,11.1,3.4l0,0c4.1-2.2,2.8-7.2,0.5-11.5l-4-7.6c-2.3-4.3-6.1-3.5-10.2-1.3l0,0
			c-4.1,2.2-6.9,4.8-4.3,9.7L17.2,165.4z"/>
		<g>
			<polygon class="st10" points="14.7,117.3 13.3,119 36.7,196.7 90.4,180.6 92.2,178 			"/>
			<polygon class="st10" points="38,194.2 92.2,178 69,100.9 14.8,117.2 			"/>
			<polygon class="st11" points="41.3,188.1 86.5,174.6 67,109.7 21.8,123.3 			"/>
			<path class="st12" d="M40.4,108.5l-0.2-0.8c-0.3-0.8,0.2-1.7,1.1-2l0.2-0.1c0.8-0.3,1.7,0.2,2,1.1l0.2,0.8l6.6-2l3.3,10.8
				l-17,5.1l-3.3-10.8L40.4,108.5z"/>
			<polygon class="st13" points="47.2,155.2 64.2,150.1 63.5,147.8 46.5,152.8 			"/>
			
				<rect x="43.7" y="156.3" transform="matrix(0.9579 -0.2871 0.2871 0.9579 -42.6561 23.17)" class="st13" width="28" height="1.5"/>
			
				<rect x="42.5" y="160.5" transform="matrix(0.9579 -0.2871 0.2871 0.9579 -43.8191 23.7152)" class="st13" width="32.9" height="1.5"/>
			<polygon class="st13" points="45.6,170.6 75.3,161.7 74.8,160.3 45.2,169.2 			"/>
			<polygon class="st13" points="45.9,175.2 77.5,165.7 77.1,164.3 45.5,173.7 			"/>
			<polygon class="st13" points="51.4,178.1 74.5,171.2 74.1,169.8 51,176.7 			"/>
		</g>
		<g>
			<g>
				<path class="st0" d="M12.9,154.7c0.4-0.2,0.7-0.6,0.9-1c2.1-4.3,10.9-9.2,14.1-10.6c1.1-0.5,1.7-1.7,1.2-2.7
					c-0.4-1-1.7-1.4-2.8-0.9c-1.3,0.6-13.3,6.3-16.5,12.9c-0.5,1.1-0.1,2.2,1,2.6C11.5,155.2,12.3,155.1,12.9,154.7z"/>
			</g>
			<g>
				<path class="st0" d="M15.6,156.9c0.3-0.2,0.6-0.4,0.8-0.8c4.2-6.3,15.9-10.4,16-10.5c1.2-0.4,1.8-1.6,1.4-2.7
					c-0.4-1.1-1.6-1.7-2.8-1.3c-0.5,0.2-13.3,4.7-18.3,12.3c-0.7,1-0.4,2.3,0.6,3C14.1,157.3,15,157.3,15.6,156.9z"/>
			</g>
			<g>
				<path class="st0" d="M20.6,157c0.2-0.1,0.5-0.3,0.7-0.5c4.3-4.3,11-6.8,11.1-6.9c1.1-0.4,1.8-1.6,1.5-2.6c-0.3-1-1.5-1.5-2.7-1
					c-0.3,0.1-7.8,3-12.9,8c-0.8,0.8-0.9,2.1,0,2.8C18.8,157.4,19.8,157.4,20.6,157z"/>
			</g>
			<g>
				<path class="st0" d="M23,160.1c0.2-0.1,0.4-0.2,0.5-0.4c4-3.7,8.4-5.5,8.5-5.5c1.1-0.5,1.7-1.7,1.3-2.7
					c-0.4-1.1-1.7-1.6-2.8-1.1c-0.2,0.1-5.3,2.1-9.9,6.5c-0.9,0.8-1,2.1-0.1,3C21.1,160.4,22.2,160.5,23,160.1z"/>
			</g>
		</g>
	</g>
	<circle class="st14" cx="136" cy="65.4" r="3.1"/>
	<circle class="st14" cx="160.1" cy="65.4" r="3.1"/>
	<path class="st15" d="M172.1,58.6c-0.5-0.1-4.4-0.2-4.4-0.2l-0.3,0c-0.8,0-1.6-0.1-2.3-0.1c-0.7,0-1.4,0-2.1,0
		c-1.4,0-2.7,0-3.9,0.1c-0.6,0-1.2,0-1.8,0c-0.5,0-1.1,0.1-1.6,0.1c-0.2,0-0.5,0-0.7,0c-0.1,0-0.2,0-0.3,0l-0.2,0l-0.1,0l0,0l-0.1,0
		l0,0c-0.6,0.1-1.1,0.3-1.5,0.7c-0.1,0.1-0.2,0.2-0.3,0.3l0,0c0,0-1.3,1.2-2.5,1.2c-1.2,0-1.8,0-1.8,0s-0.7,0-1.8,0
		c-1.2,0-2.5-1.1-2.5-1.1l0,0c-0.1-0.1-0.2-0.2-0.3-0.3c-0.4-0.3-0.9-0.5-1.5-0.6l0,0l-0.1,0l0,0l-0.1,0l-0.2,0c-0.1,0-0.2,0-0.3,0
		c-0.2,0-0.5,0-0.7,0c-0.5,0-1,0-1.6,0c-0.6,0-1.1,0-1.8,0c-1.2,0-2.6,0-3.9,0.1c-0.7,0-1.4,0-2.1,0.1c-0.8,0.1-1.5,0.1-2.3,0.2
		l-0.3,0c0,0-3.9,0.3-4.4,0.3c-0.5,0.1-1.3,0.4-1.2,1.3c0,0.9,0,1.4,0.4,1.7c0.4,0.3,0.9,0.3,1.3,0.6c0.2,0.2,0.4,0.7,0.5,1.3
		c0.1,0.4,0.1,0.9,0.2,1.3c0,0,0,0,0,0s0,0,0,0c0.2,0.8,0.4,1.5,0.7,2.3c0.3,0.8,0.7,1.6,1.4,2.3c0.1,0.2,0.3,0.3,0.5,0.5l0,0
		l0.1,0.1l0,0l0.1,0l0.1,0.1l0.2,0.2c0.2,0.1,0.4,0.2,0.7,0.3c0.2,0.1,0.4,0.2,0.6,0.2c1.6,0.5,3.3,0.6,4.8,0.6c1.5,0,3-0.1,4.4-0.4
		c0.4-0.1,0.7-0.2,1-0.3l0.1,0l0.1,0l0,0l0.1,0l0.2-0.1l0.4-0.2c0.3-0.1,0.6-0.4,0.9-0.6c0.3-0.2,0.5-0.4,0.8-0.7
		c0.9-0.9,1.5-2,1.9-3c0.1-0.3,0.1-0.5,0.2-0.8c0-0.2,0.1-0.4,0.1-0.7c0,0,0-0.1,0-0.1l0,0c0.5-1.3,1.6-1.6,2.2-1.6c0.6,0,1,0,1,0
		s0.4,0,1,0c0.6,0,1.7,0.2,2.3,1.5l0,0c0,0,0,0.1,0,0.1c0,0.2,0.1,0.4,0.1,0.7c0.1,0.3,0.1,0.6,0.2,0.8c0.4,1,1,2.1,2,3
		c0.3,0.2,0.5,0.5,0.8,0.6c0.3,0.2,0.6,0.4,0.9,0.5l0.5,0.2l0.2,0.1l0.1,0l0,0l0.1,0l0.1,0c0.4,0.1,0.7,0.2,1.1,0.2
		c1.4,0.2,2.9,0.3,4.4,0.2c1.5-0.1,3.1-0.2,4.8-0.8c0.2-0.1,0.4-0.2,0.6-0.3c0.2-0.1,0.4-0.2,0.7-0.4l0.2-0.2l0.1-0.1l0.1,0l0,0
		l0.1-0.1l0,0c0.2-0.2,0.3-0.3,0.5-0.5c0.6-0.7,1-1.5,1.3-2.3c0.3-0.8,0.5-1.5,0.6-2.3c0,0,0,0,0,0s0,0,0,0c0.1-0.4,0.1-0.8,0.2-1.3
		c0.1-0.6,0.3-1.1,0.5-1.3c0.4-0.4,0.9-0.4,1.3-0.7c0.4-0.3,0.3-0.8,0.3-1.7C173.4,59,172.7,58.6,172.1,58.6z M169.3,64.3
		c-0.1,0.7-0.3,1.5-0.5,2.2c-0.2,0.7-0.5,1.4-0.9,1.9c-0.1,0.1-0.2,0.2-0.3,0.4l0,0c0,0,0,0,0,0l0,0l-0.1,0.1l-0.2,0.2l-0.4,0.2
		c-0.1,0.1-0.3,0.1-0.5,0.2c-1.3,0.6-2.8,0.8-4.3,0.9c-1.5,0.1-2.9,0-4.2-0.2c-0.3-0.1-0.6-0.1-0.9-0.2l-0.1,0l-0.1,0l0,0l-0.2-0.1
		l-0.4-0.2c-0.3-0.1-0.5-0.3-0.7-0.4c-0.2-0.1-0.4-0.4-0.6-0.5c-0.8-0.8-1.3-1.7-1.5-2.5c-0.1-0.2-0.1-0.4-0.1-0.6
		c0-0.2,0-0.4,0-0.6c0-0.4,0-0.8,0-1.1c0-0.7,0-1.2,0.1-1.5c0-0.2,0-0.2,0-0.3c0,0,0-0.1,0-0.1c0,0,0.1-0.2,0.2-0.5
		c0.1-0.3,0.3-0.7,0.6-0.9c0.1-0.1,0.3-0.2,0.6-0.3c0.4,0,0.8-0.1,1.3-0.1c0.5-0.1,1-0.1,1.5-0.2c0.5,0,1.1-0.1,1.7-0.1
		c1.2,0,2.4-0.1,3.8-0.1c0.7,0,1.4,0,2.1,0c0.7,0,1.4,0.1,2.1,0.1l0.3,0l0,0l0.1,0l0.1,0l0.3,0.1c0.1,0,0.1,0,0.2,0.1
		c0.2,0.1,0.5,0.2,0.6,0.4c0.2,0.2,0.3,0.4,0.5,0.6c0.1,0.1,0.1,0.3,0.2,0.4l0,0.1c0,0.1,0,0.1,0,0.1c0,0,0,0,0,0.1
		C169.5,62.8,169.4,63.6,169.3,64.3z M143.5,65.3c0,0.2,0,0.4,0,0.6c0,0.2,0,0.4-0.1,0.6c-0.2,0.8-0.7,1.8-1.4,2.5
		c-0.2,0.2-0.4,0.4-0.6,0.5c-0.2,0.1-0.4,0.3-0.7,0.5l-0.4,0.2l-0.2,0.1l0,0l-0.1,0l-0.1,0c-0.3,0.1-0.6,0.2-0.9,0.2
		c-1.3,0.2-2.7,0.4-4.2,0.3c-1.5,0-3-0.2-4.3-0.7c-0.2-0.1-0.3-0.1-0.5-0.2l-0.4-0.2l-0.2-0.2l-0.1-0.1l0,0c0,0,0,0,0,0l0,0
		c-0.1-0.1-0.2-0.2-0.3-0.4c-0.4-0.5-0.7-1.2-1-1.9c-0.2-0.7-0.4-1.4-0.5-2.2c-0.1-0.7-0.2-1.5-0.2-2.2c0-0.1,0-0.1,0-0.1
		c0,0,0,0,0-0.1l0-0.1c0.1-0.1,0.1-0.3,0.2-0.4c0.1-0.3,0.3-0.5,0.4-0.7c0.2-0.2,0.4-0.3,0.6-0.4c0.1,0,0.1-0.1,0.2-0.1l0.3-0.1
		l0.1,0l0.1,0l0,0l0.3,0c0.7-0.1,1.4-0.1,2.1-0.2c0.7,0,1.4-0.1,2.1-0.1c1.4-0.1,2.6-0.1,3.8-0.1c0.6,0,1.1,0,1.7,0
		c0.5,0,1.1,0.1,1.6,0.1c0.5,0,0.9,0.1,1.3,0.1c0.2,0.1,0.4,0.1,0.6,0.3c0.3,0.2,0.5,0.6,0.7,0.9c0.1,0.3,0.2,0.5,0.2,0.5
		c0,0,0,0,0,0.1c0,0,0,0.1,0.1,0.2c0.1,0.3,0.1,0.8,0.1,1.5C143.5,64.5,143.5,64.9,143.5,65.3z"/>
	<path class="st15" d="M118.1,65.4h-2.3c1-1,6.4-4.7,8.9-4.7V63C122.8,63,118.9,64.7,118.1,65.4z"/>
</g>
<g>
	<polyline class="st16" points="260.4,216.7 344.1,125.6 430.3,144.6 520.3,86.9 604.8,115.2 660.2,54.8 	"/>
	<polygon class="st17" points="665.9,64.2 670.5,43.6 650.3,49.9 	"/>
</g>
<g>
	<circle class="st18" cx="531.8" cy="81.1" r="2.8"/>
	<rect x="479.2" y="97.4" class="st18" width="19.4" height="6.7"/>
	<rect x="503.1" y="97.3" class="st18" width="19.4" height="6.7"/>
	<rect x="527.1" y="97.2" class="st18" width="19.4" height="6.7"/>
	<polygon class="st9" points="454.5,188.9 448.9,217.4 499.9,217.4 494.4,188.9 	"/>
	<polygon class="st19" points="496.3,198.7 494.4,188.9 454.5,188.9 452.6,198.7 	"/>
	<path class="st8" d="M389.1,65.3h171.2c2.9,0,5.2,2.3,5.2,5.2v119.7c0,2.9-2.3,5.2-5.2,5.2H389.1c-2.9,0-5.2-2.3-5.2-5.2V70.5
		C383.9,67.6,386.2,65.3,389.1,65.3z"/>
	<path class="st2" d="M559.9,56.6h-171c-2.7,0-5,2.3-5,5c0,0.1,0,0.2,0,0.2v110.6h181.7V61.8C565.6,58.9,562.8,56.6,559.9,56.6z"/>
	<path class="st8" d="M444.3,215.1h60.6c2.2,0,3.9,1.7,3.9,3.9v0.5l0,0h-68l0,0v-0.9C440.8,216.7,442.4,215.1,444.3,215.1
		L444.3,215.1z"/>
	<rect x="395.1" y="71" class="st19" width="157.4" height="90.9"/>
	<polyline class="st18" points="472.5,71 552.5,71 552.5,161.9 472.5,161.9 	"/>
	<rect x="472.5" y="91.1" class="st10" width="80" height="19.3"/>
	<rect x="481.4" y="141" class="st20" width="15.1" height="14.6"/>
	<rect x="505.3" y="141" class="st21" width="15.1" height="14.6"/>
	<rect x="528.4" y="141" class="st22" width="15.1" height="14.6"/>
	<rect x="480.9" y="117.5" class="st23" width="65.6" height="1.3"/>
	<rect x="480.9" y="122.8" class="st23" width="65.6" height="1.3"/>
	<rect x="480.9" y="128.3" class="st23" width="65.6" height="1.3"/>
	<rect x="480.9" y="133.7" class="st23" width="49.5" height="1.3"/>
	<rect x="472.4" y="76.5" class="st17" width="80" height="9.3"/>
	<rect x="412.5" y="145.3" class="st18" width="5.5" height="1.3"/>
	<rect x="438.1" y="145.3" class="st24" width="5.5" height="1.3"/>
	<rect x="412.5" y="141.6" class="st18" width="23.2" height="1.3"/>
	<rect x="406.9" y="152.5" class="st25" width="3" height="1.3"/>
	<rect x="406.9" y="80.3" class="st25" width="3.5" height="1.3"/>
	<rect x="406.9" y="87.5" class="st24" width="4" height="1.3"/>
	<rect x="412.5" y="87.5" class="st18" width="11" height="1.3"/>
	<rect x="409.9" y="91" class="st18" width="6" height="1.3"/>
	<rect x="433.9" y="91" class="st18" width="6" height="1.3"/>
	<rect x="441.1" y="91" class="st26" width="6" height="1.3"/>
	<rect x="418" y="91" class="st18" width="13.7" height="1.3"/>
	<rect x="412.5" y="94.7" class="st26" width="8" height="1.3"/>
	<rect x="422.8" y="94.7" class="st18" width="17.1" height="1.3"/>
	<rect x="416" y="101.9" class="st24" width="5" height="1.3"/>
	<rect x="416" y="105.5" class="st25" width="5" height="1.3"/>
	<rect x="423.2" y="101.9" class="st18" width="15.3" height="1.3"/>
	<rect x="423.2" y="105.5" class="st18" width="21.3" height="1.3"/>
	<rect x="419.5" y="109.2" class="st26" width="5" height="1.3"/>
	<rect x="423.2" y="112.7" class="st18" width="34" height="1.3"/>
	<rect x="423.2" y="116.4" class="st18" width="11.3" height="1.3"/>
	<rect x="436.4" y="116.4" class="st26" width="5" height="1.3"/>
	<rect x="443.2" y="116.4" class="st25" width="5" height="1.3"/>
	<rect x="410.4" y="120" class="st25" width="3.5" height="1.3"/>
	<rect x="412" y="123.6" class="st26" width="8.6" height="1.3"/>
	<rect x="459" y="123.6" class="st26" width="6" height="1.3"/>
	<rect x="422.6" y="123.6" class="st18" width="33.9" height="1.3"/>
	<rect x="417" y="127.2" class="st18" width="28.7" height="1.3"/>
	<rect x="417" y="130.9" class="st18" width="34.7" height="1.3"/>
	<rect x="415" y="134.4" class="st26" width="4.1" height="1.3"/>
	<rect x="410.4" y="138.1" class="st26" width="6" height="1.3"/>
	<rect x="420.2" y="145.3" class="st18" width="15.5" height="1.3"/>
	<rect x="401" y="80.7" class="st18" width="1.3" height="72.7"/>
</g>
<g>
	<rect x="286.8" y="115.5" class="st19" width="92.2" height="102.3"/>
	<rect x="286.8" y="214.3" class="st4" width="92.2" height="5.1"/>
	<rect x="286.8" y="115.5" class="st4" width="92.2" height="7.7"/>
	<rect x="307.7" y="201.3" class="st18" width="6.2" height="1.3"/>
	<rect x="336.2" y="201.3" class="st17" width="6.2" height="1.3"/>
	<rect x="307.7" y="197.5" class="st18" width="25.7" height="1.3"/>
	<rect x="301.5" y="209.2" class="st25" width="3.3" height="1.3"/>
	<rect x="301.5" y="131.2" class="st25" width="3.9" height="1.3"/>
	<rect x="301.5" y="139.1" class="st17" width="4.4" height="1.3"/>
	<rect x="307.7" y="139.1" class="st18" width="12.2" height="1.3"/>
	<rect x="304.9" y="142.9" class="st18" width="6.6" height="1.3"/>
	<rect x="331.4" y="142.9" class="st18" width="6.6" height="1.3"/>
	<rect x="339.5" y="142.9" class="st22" width="6.6" height="1.3"/>
	<rect x="313.8" y="142.9" class="st18" width="15.3" height="1.3"/>
	<rect x="307.7" y="146.8" class="st22" width="8.9" height="1.3"/>
	<rect x="319" y="146.8" class="st18" width="19" height="1.3"/>
	<rect x="311.6" y="154.6" class="st17" width="5.5" height="1.3"/>
	<rect x="311.6" y="158.5" class="st25" width="5.5" height="1.3"/>
	<rect x="319.5" y="154.6" class="st18" width="17" height="1.3"/>
	<rect x="319.5" y="158.5" class="st18" width="23.5" height="1.3"/>
	<rect x="315.5" y="162.4" class="st22" width="5.6" height="1.3"/>
	<rect x="319.5" y="166.3" class="st18" width="37.7" height="1.3"/>
	<rect x="319.5" y="170.2" class="st18" width="12.5" height="1.3"/>
	<rect x="334.2" y="170.2" class="st22" width="5.6" height="1.3"/>
	<rect x="341.8" y="170.2" class="st18" width="5.6" height="1.3"/>
	<rect x="305.5" y="174.1" class="st25" width="3.9" height="1.3"/>
	<rect x="307.1" y="178" class="st22" width="9.5" height="1.3"/>
	<rect x="359.2" y="178" class="st22" width="6.7" height="1.3"/>
	<rect x="318.8" y="178" class="st18" width="37.5" height="1.3"/>
	<rect x="312.7" y="181.9" class="st18" width="31.9" height="1.3"/>
	<rect x="312.7" y="185.7" class="st18" width="38.5" height="1.3"/>
	<rect x="310.5" y="189.7" class="st22" width="4.5" height="1.3"/>
	<rect x="305.5" y="193.6" class="st22" width="6.7" height="1.3"/>
	<rect x="316.2" y="201.3" class="st18" width="17.1" height="1.3"/>
	<circle class="st27" cx="291.8" cy="119.3" r="1.5"/>
	<circle class="st17" cx="296.8" cy="119.3" r="1.5"/>
	<circle class="st20" cx="301.8" cy="119.3" r="1.5"/>
</g>
<line class="st28" x1="179.1" y1="49.6" x2="202.2" y2="35.1"/>
<g>
	<path class="st10" d="M340.4,85.9h-21.1c-1.9,0-3.5,1.6-3.5,3.5V103c0,1.9,1.6,3.5,3.5,3.5h4.5l6,8.4l6-8.4h4.5
		c1.9,0,3.5-1.6,3.5-3.5V89.4C343.9,87.4,342.3,85.9,340.4,85.9L340.4,85.9z"/>
	<path class="st9" d="M337.2,98.5v-2.7h-1.5c-0.2-0.7-0.4-1.2-0.7-1.8l1.1-1.1l-2-2l-1.1,1.1c-0.6-0.4-1.2-0.6-1.8-0.7v-1.5h-2.7
		v1.5c-0.7,0.2-1.2,0.4-1.8,0.7l-1.1-1.1l-2,2l1.1,1.1c-0.4,0.6-0.6,1.2-0.7,1.8h-1.5v2.7h1.5c0.2,0.7,0.4,1.2,0.7,1.8l-1.1,1.1l2,2
		l1.1-1.1c0.6,0.4,1.2,0.6,1.8,0.7v1.5h2.7V103c0.7-0.2,1.2-0.4,1.8-0.7l1.1,1.1l2-2l-1.1-1.1c0.4-0.6,0.6-1.2,0.7-1.8H337.2z
		 M329.8,99.6c-1.4,0-2.6-1.2-2.6-2.6c0-1.4,1.2-2.6,2.6-2.6c1.4,0,2.6,1.2,2.6,2.6l0,0C332.5,98.5,331.3,99.6,329.8,99.6z"/>
</g>
<rect x="530.8" y="81.1" class="st18" width="12.3" height="1.8"/>
<path class="st18" d="M546.1,81.9c0.5-0.1,0.8-0.5,0.8-1c0-0.7-0.3-1-0.8-1c-0.5,0-0.8,0.2-0.8,1C545.3,81.5,545.6,81.9,546.1,81.9z
	"/>
<path class="st18" d="M547.9,83.3l-0.4-0.9c0-0.1-0.1-0.1-0.1-0.1l-0.7-0.3c0,0,0,0-0.1,0c-0.3,0.2-0.9,0.2-1.2,0c0,0,0,0-0.1,0
	l-0.7,0.3l-0.1,0.1l-0.4,0.9c-0.1,0.1,0,0.2,0.1,0.2h0.1c0.9,0.8,2.3,0.8,3.2,0C547.7,83.5,547.8,83.4,547.9,83.3
	C548,83.4,548,83.4,547.9,83.3z"/>
<g>
	<path class="st4" d="M644.1,220.5c-2.6,0-4.9-2.2-4.9-4.9v-59.9c0-2.6,2.2-4.9,4.9-4.9h28.1c2.6,0,4.9,2.2,4.9,4.9v59.9
		c0,2.6-2.2,4.8-4.9,4.9H644.1z"/>
	<path class="st2" d="M662.4,215.6c0,0.6-0.5,1.1-1.2,1.2h-6.1c-0.7,0-1.2-0.5-1.2-1.2v-0.5c0-0.7,0.5-1.2,1.2-1.2h6.1
		c0.7,0,1.2,0.5,1.2,1.2l0,0V215.6z"/>
	<path class="st2" d="M659.7,156.2c0,0.7-0.7,1.4-1.4,1.4c-0.7,0-1.4-0.7-1.4-1.4s0.7-1.4,1.4-1.4
		C659,154.8,659.7,155.5,659.7,156.2L659.7,156.2z"/>
	<rect x="642.1" y="161.5" class="st18" width="32.4" height="48.6"/>
	<rect x="642.1" y="161.5" class="st17" width="32.4" height="4.9"/>
	<rect x="644.9" y="172.3" class="st10" width="26.6" height="15.3"/>
	<rect x="644.9" y="190.4" class="st21" width="26.6" height="5.4"/>
	<rect x="644.9" y="198.5" class="st23" width="26.6" height="1.2"/>
	<rect x="644.9" y="201.4" class="st23" width="26.6" height="1.2"/>
	<rect x="644.9" y="204.3" class="st23" width="13.3" height="1.2"/>
</g>
<g>
	<path class="st4" d="M573.9,127.4h57.2c1.9,0,3.5,1.6,3.5,3.5V217c0,1.9-1.6,3.5-3.5,3.5h-57.2c-1.9,0-3.5-1.6-3.5-3.5V131
		C570.5,129,572,127.4,573.9,127.4z"/>
	<path class="st2" d="M599,213.2h7c0.8,0,1.6,0.7,1.6,1.6v0.4c0,0.8-0.7,1.6-1.6,1.6h-7c-0.8,0-1.6-0.7-1.6-1.6v-0.4
		C597.5,213.9,598.2,213.2,599,213.2z"/>
	<path class="st2" d="M602.6,133.6c-0.9-0.1-1.6-0.8-1.5-1.7c0.1-0.8,0.7-1.4,1.5-1.5c0.9-0.1,1.7,0.6,1.7,1.5s-0.6,1.7-1.5,1.7
		C602.7,133.6,602.6,133.6,602.6,133.6z"/>
	<rect x="574.1" y="136.5" class="st18" width="56.9" height="72.8"/>
	<rect x="576.3" y="148.9" class="st22" width="11.3" height="11.3"/>
	<rect x="590" y="148.9" class="st10" width="11.3" height="11.3"/>
	<rect x="603.6" y="148.9" class="st29" width="11.3" height="11.3"/>
	<rect x="617.2" y="148.9" class="st2" width="11.3" height="11.3"/>
	<rect x="576.3" y="162.6" class="st29" width="11.3" height="11.3"/>
	<rect x="590" y="162.6" class="st2" width="11.3" height="11.3"/>
	<rect x="603.6" y="162.6" class="st10" width="11.3" height="11.3"/>
	<rect x="617.2" y="162.6" class="st21" width="11.3" height="11.3"/>
	<rect x="590" y="176.2" class="st22" width="11.3" height="11.3"/>
	<rect x="603.6" y="176.2" class="st23" width="11.3" height="11.3"/>
	<rect x="617.2" y="176.2" class="st29" width="11.3" height="11.3"/>
	<rect x="576.3" y="195.5" class="st22" width="11.3" height="11.3"/>
	<rect x="590" y="195.5" class="st21" width="11.3" height="11.3"/>
	<rect x="574.1" y="136.5" class="st17" width="56.9" height="10"/>
</g>
<g>
	<path class="st10" d="M447.5,31.3h-21.1c-1.9,0-3.5,1.6-3.5,3.5v13.7c0,1.9,1.6,3.5,3.5,3.5h4.5l6,8.4l6-8.4h4.5
		c1.9,0,3.5-1.6,3.5-3.5V34.7C451.1,32.8,449.5,31.3,447.5,31.3L447.5,31.3z"/>
	<path class="st9" d="M433.3,47.3l-5.7-3.8v-1.4l5.7-4.2v2.6l-3.5,2.4l3.5,2.2V47.3z"/>
	<path class="st9" d="M439.5,36.4l-3.1,12.7h-2l3.1-12.7H439.5z"/>
	<path class="st9" d="M440.6,44.9l3.5-2.2l-3.5-2.4v-2.6l5.7,4.2v1.4l-5.7,3.8V44.9z"/>
</g>
<g>
	<path class="st30" d="M591.1,65.4h-2.2c-0.3,0-0.6,0.3-0.6,0.6v2.2c0,0.3,0.3,0.6,0.6,0.6h2.2c0.3,0,0.6-0.3,0.6-0.6v-2.2
		C591.7,65.7,591.4,65.4,591.1,65.4z"/>
	<path class="st30" d="M597,65.4h-2.2c-0.3,0-0.6,0.3-0.6,0.6v2.2c0,0.3,0.3,0.6,0.6,0.6h2.2c0.3,0,0.6-0.3,0.6-0.6v-2.2
		C597.6,65.7,597.3,65.4,597,65.4z"/>
	<path class="st30" d="M602.9,65.4h-2.2c-0.3,0-0.6,0.3-0.6,0.6v2.2c0,0.3,0.3,0.6,0.6,0.6h2.2c0.3,0,0.6-0.3,0.6-0.6v-2.2
		C603.5,65.7,603.2,65.4,602.9,65.4z"/>
	<path class="st30" d="M610.9,65.7c-0.1-0.1-0.3-0.2-0.5-0.1c-0.3,0.1-0.7-0.1-1-0.2c-0.1-0.1-0.1-0.2-0.1-0.4v-9.5
		c0-0.7-0.3-1.4-0.9-1.9c-0.9-0.6-2-0.7-3.1-0.5c-0.3,0.1-0.5,0.4-0.5,0.7L605,55c0,0.2,0.1,0.3,0.3,0.4c0.1,0.1,0.3,0.1,0.5,0.1
		c0.3-0.1,0.7-0.1,1,0V65c0,0.9,0.4,1.8,0.9,2.2c0,0,0.1,0.1,0.1,0.1c0,0,0,0,0,0c-0.6,0.5-0.9,1.2-0.8,1.8v9.5c0,0.1,0,0.2,0,0.2
		c0,0,0,0,0,0v0c-0.4,0.1-0.8,0.2-1.1,0.1c-0.2-0.1-0.4-0.1-0.5,0c-0.2,0.1-0.3,0.2-0.3,0.4l-0.3,1.1c0,0.2,0,0.3,0.1,0.5
		c0.1,0.1,0.2,0.2,0.4,0.3c0.5,0.1,0.9,0.1,1.3,0.1c0.4,0,1.3-0.1,1.9-0.5c0.7-0.6,1.1-1.4,1-2.1l0-9.5c0,0,0,0,0,0
		c0.5-0.3,0.9-0.3,1.2-0.3c0.3,0,0.6-0.3,0.6-0.6v-2C611.2,66,611.1,65.8,610.9,65.7z M607.4,79.2C607.4,79.2,607.4,79.2,607.4,79.2
		l-0.2-0.1l0-0.1L607.4,79.2z"/>
	<path class="st30" d="M587.2,79.3c0-0.2-0.2-0.3-0.3-0.4c-0.2-0.1-0.3-0.1-0.5,0c-0.3,0.1-0.7,0.1-1.1-0.1c0,0,0-0.1,0-0.2l0-9.4
		c0.2-0.7-0.1-1.5-0.7-1.9c0,0-0.1-0.1-0.1-0.1c0,0,0,0,0,0c0.6-0.5,1-1.3,1-2.2v-9.5c0.3-0.1,0.7-0.1,1,0c0.2,0,0.3,0,0.5-0.1
		c0.1-0.1,0.2-0.2,0.3-0.4l0.2-1.2c0.1-0.3-0.2-0.6-0.5-0.7c-1.1-0.3-2.2-0.1-3.2,0.5c-0.5,0.4-0.9,1.1-0.9,1.8v9.5
		c0,0.2,0,0.3-0.1,0.3c-0.3,0.2-0.8,0.4-1.1,0.3c-0.2,0-0.4,0-0.5,0.1c-0.1,0.1-0.2,0.3-0.2,0.5v2c0,0.3,0.3,0.6,0.6,0.6
		c0.3,0,0.7,0,1.2,0.3l0,9.4c-0.1,0.8,0.2,1.7,1,2.2c0.6,0.5,1.5,0.5,1.9,0.5c0.4,0,0.8,0,1.3-0.1c0.2,0,0.3-0.1,0.4-0.3
		c0.1-0.1,0.1-0.3,0.1-0.5L587.2,79.3z"/>
</g>
<g>
	<path id="XMLID_49_" class="st9" d="M65,62.5v1.2c0,0.9-0.7,1.7-1.5,1.8l-0.2,1.1c-0.2,0.5-0.7,0.9-1.2,0.9h-2.7
		c-0.6,0-1.1-0.4-1.2-0.9l-0.2-1.1c-0.8-0.2-1.5-0.8-1.5-1.8v-1.2c0-0.6,0.5-1.1,1.1-1.1H64C64.6,61.4,65,61.8,65,62.5z M70.2,47.2
		c0,2.6-1,4.9-2.6,6.6c-1.2,1.3-2.1,3-2.3,4.8c-0.2,0.8-0.8,1.3-1.6,1.3h-6c-0.8,0-1.5-0.5-1.5-1.3c-0.2-1.8-1.2-3.5-2.4-4.8
		c-1.7-1.7-2.6-4-2.6-6.5c-0.1-5.3,4.1-9.6,9.5-9.7C65.9,37.6,70.2,41.9,70.2,47.2z M61.7,41.5c0-0.6-0.5-1.1-1.1-1.1
		c-3.8,0-6.9,3.1-6.9,6.9c0,0.6,0.5,1.1,1.1,1.1c0.6,0,1.1-0.5,1.1-1.1c0-2.6,2.2-4.7,4.7-4.7C61.3,42.5,61.7,42.1,61.7,41.5z
		 M60.6,34.5c0.6,0,1.1-0.5,1.1-1.1v-3.7c0-0.6-0.5-1.1-1.1-1.1c-0.6,0-1.1,0.5-1.1,1.1v3.7C59.6,34,60.1,34.5,60.6,34.5z M48,47.2
		c0-0.6-0.5-1.1-1.1-1.1h-3.8c-0.6,0-1.1,0.5-1.1,1.1c0,0.6,0.5,1.1,1.1,1.1h3.8C47.5,48.3,48,47.9,48,47.2z M78.2,46.2h-3.8
		c-0.6,0-1.1,0.5-1.1,1.1s0.5,1.1,1.1,1.1h3.8c0.6,0,1.1-0.5,1.1-1.1C79.3,46.6,78.8,46.2,78.2,46.2z M50.2,56.2l-2.6,2.6
		c-0.4,0.4-0.4,1.2,0,1.5c0.2,0.2,0.5,0.3,0.7,0.3s0.5-0.2,0.7-0.3l2.6-2.6c0.4-0.4,0.4-1.2,0-1.5C51.3,55.8,50.6,55.8,50.2,56.2z
		 M70.3,38.5c0.2,0,0.5-0.2,0.7-0.3l2.6-2.6c0.4-0.4,0.4-1.2,0-1.5c-0.4-0.4-1.2-0.4-1.5,0l-2.6,2.6c-0.4,0.4-0.4,1.2,0,1.5
		C69.8,38.5,70.1,38.5,70.3,38.5z M50.2,38.2c0.2,0.2,0.5,0.3,0.7,0.3c0.2,0,0.5-0.2,0.7-0.3c0.4-0.4,0.4-1.2,0-1.5L49.1,34
		c-0.4-0.4-1.2-0.4-1.5,0c-0.4,0.4-0.4,1.2,0,1.5L50.2,38.2z M71.2,56.2c-0.4-0.4-1.2-0.4-1.5,0c-0.4,0.4-0.4,1.2,0,1.5l2.6,2.6
		c0.2,0.2,0.5,0.3,0.7,0.3c0.2,0,0.5-0.2,0.7-0.3c0.4-0.4,0.4-1.2,0-1.5L71.2,56.2z"/>
</g>
<g>
	<g>
		<path class="st9" d="M251.5,102.3v-6.1h-6v-3.6h6v-6h3.6v6h6v3.6h-6v6L251.5,102.3L251.5,102.3z M269,89.6v-9c0-1-0.8-1.7-1.7-1.7
			h-9.1v3.6h7.3v7.3L269,89.6L269,89.6z M269,108.4v-9h-3.6v7.3h-7.3v3.6h9C268.2,110.2,269,109.4,269,108.4z M239.3,110.2h9v-3.6
			H241v-7.3h-3.6v9C237.6,109.4,238.3,110.2,239.3,110.2z M237.6,80.6v9h3.6v-7.3h7.3v-3.6h-9C238.3,78.7,237.6,79.5,237.6,80.6z"/>
	</g>
</g>
<g>
	<g>
		<path class="st9" d="M495.9,23.4l-0.2-0.2c0,0,0,0-0.1-0.1c-1.7,1-3.6,1.5-5.5,1.5c-2.4,0-4.8-0.8-6.7-2.3c-0.6,0.3-1,0.7-1.6,1.2
			c-0.4,0.3-0.7,0.8-0.7,1.3v2.5h8.9h8.9v-0.8l-2.6-2.6L495.9,23.4z"/>
		<path class="st9" d="M490.5,8h-0.4h-0.4c-1.8,0-3.3,1.5-3.3,3.3v3.6c0,0.6,0.2,1.1,0.7,1.3v3.1c0.9,0.5,1.9,0.7,3,0.7
			c1.1,0,2.1-0.2,3-0.7v-3.1c0.5-0.2,0.7-0.8,0.7-1.3v-3.6C493.8,9.5,492.4,8,490.5,8z"/>
		<path class="st9" d="M506.7,20.9c-1.9-1.6-4-2.6-4.4-2.8c-0.1,0-0.1-0.1-0.1-0.2v-3c0.4-0.2,0.6-0.7,0.6-1.2v-3.1
			c0-1.6-1.2-2.8-2.8-2.8h-0.3h-0.3c0.9,1.6,1.6,3.4,1.7,5.3c0.1,2.1-0.5,4.2-1.5,6c0,0,0,0,0.1,0.1l0.2,0.2l0.2,0.2l0.5,0.5
			l4.1,4.1h2.7V22C507.2,21.7,507,21.2,506.7,20.9z"/>
		<path class="st9" d="M504.8,26.5l-5.5-5.5l-0.5-0.5l-0.2-0.2l0,0l-0.2-0.2l-0.3,0.3l-0.8-0.8c3.1-3.7,3-9.3-0.6-12.8
			c-1.8-1.8-4.3-2.8-6.7-2.8c-2.4,0-4.9,0.9-6.7,2.8c-3.7,3.7-3.7,9.7,0,13.4c1.8,1.8,4.3,2.8,6.7,2.8c2.2,0,4.3-0.7,6.1-2.2
			l0.8,0.8l-0.3,0.3l0,0l0,0l0.2,0.2l0.5,0.5l5.5,5.5c0.2,0.2,0.6,0.4,0.9,0.4s0.7-0.2,0.9-0.4C505.3,27.9,505.3,27,504.8,26.5
			L504.8,26.5z M495.7,19.3c-1.6,1.6-3.6,2.3-5.5,2.3c-2.1,0-4.1-0.7-5.5-2.3c-3.1-3.1-3.1-8,0-11.2c1.6-1.6,3.6-2.3,5.5-2.3
			c2.1,0,4.1,0.7,5.5,2.3C498.8,11.2,498.8,16.2,495.7,19.3z"/>
		<path class="st9" d="M480.9,8h-0.2h-0.3c-1.6,0-2.8,1.2-2.8,2.8V14c0,0.5,0.2,0.9,0.6,1.2v3c0,0.1,0,0.1-0.1,0.2
			c-0.4,0.2-2.5,1.2-4.4,2.8c-0.3,0.2-0.6,0.7-0.6,1.2v2.1h6.8c0.2-0.7,0.6-1.3,1.1-1.8c0.5-0.4,0.9-0.7,1.4-1.1
			C478.9,17.7,478.3,12.2,480.9,8z"/>
	</g>
</g>
<g>
	<path class="st9" d="M238.6,25.2v-7h-3.7c-0.3-1.6-0.9-3.1-1.8-4.5l2.6-2.6l-5-5L228,8.6c-1.3-0.8-2.8-1.5-4.5-1.8V3h-7v3.7
		c-1.6,0.3-3.1,0.9-4.5,1.8l-2.6-2.6l-5,5l2.6,2.6c-0.8,1.3-1.5,2.8-1.8,4.5h-3.7v7h3.7c0.3,1.6,0.9,3.1,1.8,4.5l-2.6,2.6l5,5
		l2.6-2.6c1.3,0.8,2.8,1.5,4.5,1.8v3.8h7v-3.7c1.6-0.3,3.1-0.9,4.5-1.8l2.6,2.6l5-5l-2.6-2.6c0.8-1.3,1.5-2.8,1.8-4.5
		C234.9,25.2,238.6,25.2,238.6,25.2z M220,30.8c-5.1,0-9.3-4.1-9.3-9.4s4.1-9.4,9.3-9.4s9.4,4.1,9.4,9.4l0,0
		C229.4,26.6,225.2,30.8,220,30.8z"/>
	<path class="st9" d="M221,27.1c0,0.6-0.5,1.2-1.2,1.2c-0.6,0-1.2-0.5-1.2-1.2v-0.7c0-0.6,0.5-1.2,1.2-1.2c0.6,0,1.2,0.5,1.2,1.2
		V27.1z M221.6,22.4c-0.3,0.2-0.5,0.5-0.5,0.8c0,0.6-0.5,1.2-1.2,1.2c-0.6,0-1.2-0.5-1.2-1.2c0-1.2,0.7-2.4,1.7-2.8
		c0.6-0.2,0.9-0.9,0.9-1.5c-0.1-0.7-0.7-1.3-1.4-1.4c-0.4,0-0.8,0.2-1.2,0.4c-0.3,0.2-0.5,0.7-0.5,1.1c0,0.6-0.5,1.2-1.2,1.2
		c-0.6,0-1.2-0.5-1.2-1.2c0-1,0.4-2.1,1.2-2.8c0.7-0.7,1.7-1.1,2.8-1c1.9,0.2,3.4,1.7,3.6,3.6C223.8,20.3,223,21.7,221.6,22.4z"/>
</g>
<line class="st28" x1="179.1" y1="87.4" x2="231.9" y2="93.5"/>
<line class="st28" x1="108.5" y1="60.6" x2="77.8" y2="54.2"/>
<g>
	<g>
		<path class="st31" d="M245.9,17.8c43.6,0,79.1,0,83.6,0"/>
		<path class="st32" d="M328.7,17.8c0.2,0,0.2,0,0.2,0V18"/>
		<line class="st33" x1="328.8" y1="22" x2="328.8" y2="83.2"/>
	</g>
</g>
<g>
	<g>
		<line class="st34" x1="275.5" y1="96.4" x2="311.6" y2="96.4"/>
	</g>
</g>
<g>
	<g>
		<g>
			<g>
				<line class="st32" x1="455.5" y1="41.8" x2="455.8" y2="41.8"/>
				<line class="st35" x1="460.3" y1="41.8" x2="487.6" y2="41.8"/>
				<polyline class="st32" points="489.8,41.8 490,41.8 490,41.6 				"/>
				<line class="st36" x1="490" y1="36.2" x2="490" y2="32.9"/>
				<line class="st32" x1="490" y1="30.2" x2="490" y2="30"/>
			</g>
		</g>
	</g>
</g>
<g>
	<g>
		<g>
			<path class="st21" d="M50,133.4c-0.2,0.1-0.5,0-0.7,0.1c-1.2,0.4-1.9,1.6-1.6,2.9c0.4,1.3,1.6,1.9,2.9,1.6
				c1.3-0.4,1.9-1.6,1.6-2.9c-0.1-0.2-0.1-0.4-0.3-0.6l4.3-8.1l1-0.2l2.1-4l-2.4,0.4l-1-2.2l-2.1,4l0.4,0.9L50,133.4z"/>
			<path class="st21" d="M48.9,131.4l1.3-2.4c-2.5-0.1-4.9,1.3-6.2,3.5c-1.7,3.2-0.4,7.4,2.8,9.1s7.4,0.4,9.1-2.8
				c1.3-2.4,1-5.1-0.5-7.1l-1.3,2.4c0.5,1.1,0.4,2.4-0.3,3.6c-1.2,2.2-3.9,3-6,1.8c-2.1-1.2-3-3.9-1.8-6
				C46.7,132.5,47.7,131.7,48.9,131.4z"/>
			<path class="st21" d="M56.6,129.8c2.4,2.6,3.1,6.7,1.2,10.1c-2.3,4.3-7.6,5.9-11.9,3.6s-5.9-7.6-3.6-11.9
				c1.8-3.3,5.5-5.2,9.1-4.6l1.2-2.2c-4.9-1.1-10,1.1-12.5,5.7c-3,5.6-0.9,12.4,4.7,15.3c5.6,3,12.4,0.9,15.3-4.7
				c2.4-4.6,1.5-10.1-2.3-13.5L56.6,129.8z"/>
		</g>
	</g>
</g>
</svg>
