<?xml version="1.0" encoding="utf-8"?>
<!-- Generator: Adobe Illustrator 21.1.0, SVG Export Plug-In . SVG Version: 6.00 Build 0)  -->
<svg version="1.1" xmlns="http://www.w3.org/2000/svg" xmlns:xlink="http://www.w3.org/1999/xlink" x="0px" y="0px"
	 viewBox="0 0 835 280" style="enable-background:new 0 0 835 280;" xml:space="preserve">
<style type="text/css">
	.st0{display:none;}
	.st1{display:inline;fill:#48A23F;}
	.st2{display:inline;fill:#ED8B00;}
	.st3{display:inline;fill:#005EB8;}
	.st4{display:inline;fill:#70BEF2;}
	.st5{display:inline;fill:#71BE72;}
	.st6{display:inline;fill:#BDDDF4;}
	.st7{display:inline;fill:#FBB040;}
	.st8{display:inline;fill:#8C4799;}
	.st9{display:inline;fill:#9EA2A2;}
	.st10{display:inline;fill:#E4002B;}
	.st11{display:inline;fill:#C8E5C9;}
	.st12{display:inline;fill:#F2A0B4;}
	.st13{display:inline;fill:#FF8564;}
	.st14{display:inline;fill:#FF9D83;}
	.st15{display:inline;fill:#707372;}
	.st16{display:inline;fill:#FFFFFF;}
	.st17{display:inline;fill:#21333A;}
	.st18{display:inline;fill:#C7C9C7;}
	.st19{fill:none;stroke:#BDDDF4;stroke-width:2;stroke-linecap:round;stroke-miterlimit:10;stroke-dasharray:5.9686,7.9582;}
	.st20{fill:none;stroke:#BDDDF4;stroke-width:2;stroke-linecap:round;stroke-miterlimit:10;stroke-dasharray:5.9348,7.9131;}
	.st21{fill:none;stroke:#CED5D8;stroke-width:2;stroke-linecap:round;stroke-miterlimit:10;stroke-dasharray:5.9955,7.994;}
	.st22{fill:#ECEFF0;}
	.st23{fill:#70BEF2;}
	.st24{fill:#BDDDF4;}
	.st25{fill:#B0BEC5;}
	.st26{fill:#CED5D8;}
	.st27{fill:#FFFFFF;}
	.st28{fill:#A5D3EF;}
	.st29{fill:#005EB8;}
	.st30{fill:#71BE72;}
	.st31{fill:#79B9E2;}
	.st32{fill:#FBB040;}
	.st33{opacity:0.5;fill:#FBB040;}
	.st34{opacity:0.8;fill:#FBB040;}
	.st35{fill:#C8E5C9;}
	.st36{fill:#EBEEF2;}
	.st37{fill:#FFFFFF;stroke:#FFFFFF;stroke-linecap:round;stroke-linejoin:round;stroke-miterlimit:10;}
	.st38{opacity:0.15;}
	.st39{fill:#41565B;}
	.st40{fill:#FCD0AE;}
	.st41{fill:#F4AE7A;}
	.st42{fill:#57A7DB;}
	.st43{fill:#034D89;}
	.st44{fill:#ED8B00;}
	.st45{fill:#48A23F;}
	.st46{fill:none;stroke:#BDDDF4;stroke-width:6;stroke-linecap:round;stroke-linejoin:round;stroke-miterlimit:10;}
</style>
<g id="color_palette" class="st0">
</g>
<g id="design">
	<g>
		<circle class="st19" cx="582.5" cy="77" r="66.5"/>
	</g>
	<g>
		<circle class="st19" cx="72" cy="100" r="66.5"/>
	</g>
	<g>
		<circle class="st20" cx="122" cy="231.5" r="48.5"/>
	</g>
	<g>
		<circle class="st21" cx="717" cy="151.5" r="118"/>
	</g>
	<g>
		<circle class="st21" cx="227.5" cy="123" r="118"/>
	</g>
	<ellipse class="st22" cx="624.6" cy="272.1" rx="40.2" ry="7.9"/>
	<ellipse class="st22" cx="493.7" cy="256.6" rx="27.2" ry="5.3"/>
	<ellipse class="st22" cx="296" cy="244.7" rx="34.4" ry="6.8"/>
	<ellipse class="st22" cx="440.9" cy="267" rx="34.4" ry="6.8"/>
	<ellipse class="st22" cx="420.9" cy="241.2" rx="102.6" ry="12.7"/>
	<g>
		<path class="st23" d="M578.1,120.9c0.6-4.2,0.4-8.3-0.6-12.2l7.8-2c-1.3-5-3.5-9.7-6.5-13.9l-6.5,4.8c-2.4-3.3-5.5-6.1-9-8.2
			l4.2-6.9c-4.4-2.6-9.2-4.4-14.3-5.2l-0.1,0l-1.2,8c-4.2-0.6-8.3-0.4-12.2,0.6l-1.9-7.8c-5,1.2-9.7,3.4-13.9,6.5l4.8,6.5
			c-3.3,2.4-6.1,5.5-8.2,9l-6.9-4.2c-2.7,4.4-4.4,9.2-5.2,14.4l0,0.2l7.3,1l0.7,0.1c-0.6,4.2-0.4,8.3,0.6,12.2l-7.8,1.9
			c1.2,5,3.4,9.7,6.5,13.9l6.5-4.8c2.4,3.3,5.5,6.1,9,8.2l-4.2,6.9c4.4,2.7,9.3,4.4,14.4,5.2l0.4,0.1l0.4,0l0.5-8l0,0
			c4.2,0.6,8.3,0.4,12.2-0.5l1.9,7.8c5-1.2,9.7-3.4,13.9-6.5l-4.8-6.5c3.3-2.4,6.1-5.5,8.2-9l6.9,4.2c2.7-4.4,4.4-9.3,5.2-14.5
			L578.1,120.9z M543.9,137.7c-11.8-1.8-20-12.9-18.1-24.7c1.8-11.8,12.9-20,24.7-18.1s20,12.9,18.1,24.7S555.7,139.5,543.9,137.7z"
			/>
		<path class="st24" d="M551.9,85.3c-17.1-2.6-33,9.1-35.7,26.2c-2.6,17.1,9.1,33,26.2,35.7c17.1,2.6,33-9.1,35.7-26.2
			C580.7,103.9,569,87.9,551.9,85.3z M543.9,137.7c-11.8-1.8-20-12.9-18.1-24.7c1.8-11.8,12.9-20,24.7-18.1
			c11.8,1.8,20,12.9,18.1,24.7S555.7,139.5,543.9,137.7z"/>
	</g>
	<g>
		<polygon class="st25" points="475.5,221.9 348.6,221.9 356.5,188.5 467.6,188.5 		"/>
		<path class="st26" d="M481.7,241.8H342.3c-6.5,0-11.8-5.3-11.8-11.8l0,0c0-6.5,5.3-11.8,11.8-11.8h139.4c6.5,0,11.8,5.3,11.8,11.8
			l0,0C493.5,236.4,488.2,241.8,481.7,241.8z"/>
		<path class="st25" d="M481.7,231.9H342.3c-4.8,0-8.9-2.8-10.8-6.9c-0.7,1.5-1.1,3.2-1.1,4.9l0,0c0,6.5,5.3,11.8,11.8,11.8h139.4
			c6.5,0,11.8-5.3,11.8-11.8l0,0c0-1.8-0.4-3.4-1.1-4.9C490.6,229,486.5,231.9,481.7,231.9z"/>
		<path class="st27" d="M430.3,224.1h-72.2c-0.8,0-1.5-0.7-1.5-1.5l0,0c0-0.8,0.7-1.5,1.5-1.5h72.2c0.8,0,1.5,0.7,1.5,1.5l0,0
			C431.9,223.5,431.2,224.1,430.3,224.1z"/>
		<path class="st27" d="M465.9,224.1h-26.1c-0.8,0-1.5-0.7-1.5-1.5l0,0c0-0.8,0.7-1.5,1.5-1.5h26.1c0.8,0,1.5,0.7,1.5,1.5l0,0
			C467.5,223.5,466.8,224.1,465.9,224.1z"/>
		<path class="st26" d="M541.1,190.3H282.9c-3.3,0-6.1-2.7-6.1-6.1V30.4c0-3.3,2.7-6.1,6.1-6.1h258.2c3.3,0,6.1,2.7,6.1,6.1v153.8
			C547.2,187.6,544.4,190.3,541.1,190.3z"/>
		<path class="st27" d="M537,168.1H287c-2.8,0-5.1-2.3-5.1-5.1V40.2c0-2.8,2.3-5.1,5.1-5.1h250c2.8,0,5.1,2.3,5.1,5.1V163
			C542.2,165.8,539.9,168.1,537,168.1z"/>
		<path class="st24" d="M534.8,165.9H289.2c-2.8,0-5-2.3-5-5V42.4c0-2.8,2.3-5,5-5h245.7c2.8,0,5,2.3,5,5v118.5
			C539.9,163.6,537.6,165.9,534.8,165.9z"/>
		<path class="st28" d="M300.5,165.8h223.1l6.6-128.4c-0.3-0.1-0.6-0.1-0.9-0.1H294.8c-0.3,0-0.6,0-0.9,0.1L300.5,165.8z"/>
		<circle class="st27" cx="412" cy="179.1" r="6.2"/>
		<circle class="st23" cx="412" cy="179.1" r="4.2"/>
		<rect x="300.5" class="st27" width="223" height="165.9"/>
		<path class="st29" d="M428,116.3h-8.9c-2.1,0-3.8-1.7-3.8-3.8v-8.9c0-2.1,1.7-3.8,3.8-3.8h8.9c2.1,0,3.8,1.7,3.8,3.8v8.9
			C431.8,114.5,430.1,116.3,428,116.3z"/>
		<path class="st30" d="M455.4,116.3h-8.9c-2.1,0-3.8-1.7-3.8-3.8v-8.9c0-2.1,1.7-3.8,3.8-3.8h8.9c2.1,0,3.8,1.7,3.8,3.8v8.9
			C459.2,114.5,457.5,116.3,455.4,116.3z"/>
		<path class="st31" d="M510.1,116.3h-8.9c-2.1,0-3.8-1.7-3.8-3.8v-8.9c0-2.1,1.7-3.8,3.8-3.8h8.9c2.1,0,3.8,1.7,3.8,3.8v8.9
			C513.9,114.5,512.2,116.3,510.1,116.3z"/>
		<path class="st32" d="M482.7,116.3h-8.9c-2.1,0-3.8-1.7-3.8-3.8v-8.9c0-2.1,1.7-3.8,3.8-3.8h8.9c2.1,0,3.8,1.7,3.8,3.8v8.9
			C486.6,114.5,484.8,116.3,482.7,116.3z"/>
		<polygon class="st33" points="384.3,140.1 370.2,140.1 364.7,165.8 390.5,165.8 		"/>
		<rect x="310.3" y="102" class="st32" width="30.2" height="63.8"/>
		<polygon class="st34" points="367.2,165.8 337,165.8 347.3,133 361.3,133 		"/>
		<rect x="310.1" y="45.9" class="st35" width="71.4" height="45.8"/>
		<rect x="390.5" y="45.9" class="st36" width="123.6" height="45.8"/>
		<rect x="303.5" y="3.2" class="st30" width="217" height="10.5"/>
		<rect x="350.8" y="6.3" class="st24" width="122.5" height="4.4"/>
		<g>
			<g>
				<path class="st37" d="M511.5,11.2L511.5,11.2c-0.2-0.2-0.2-0.5,0-0.7l4.8-4.8c0.2-0.2,0.5-0.2,0.7,0l0,0c0.2,0.2,0.2,0.5,0,0.7
					l-4.8,4.8C512,11.4,511.7,11.4,511.5,11.2z"/>
				<path class="st37" d="M517,11.2L517,11.2c0.2-0.2,0.2-0.5,0-0.7l-4.8-4.8c-0.2-0.2-0.5-0.2-0.7,0l0,0c-0.2,0.2-0.2,0.5,0,0.7
					l4.8,4.8C516.5,11.4,516.8,11.4,517,11.2z"/>
			</g>
			<g>
				<path class="st37" d="M504.6,6c1.4,0,2.5,1.1,2.5,2.5c0,1.4-1.1,2.5-2.5,2.5c-1.4,0-2.5-1.1-2.5-2.5C502.1,7.1,503.2,6,504.6,6
					 M504.6,5.2c-1.8,0-3.3,1.5-3.3,3.3s1.5,3.3,3.3,3.3s3.3-1.5,3.3-3.3S506.4,5.2,504.6,5.2L504.6,5.2z"/>
			</g>
			<g>
				<path class="st37" d="M497.9,11.2H492c-0.2,0-0.4-0.2-0.4-0.4c0-0.2,0.2-0.4,0.4-0.4h5.9c0.2,0,0.4,0.2,0.4,0.4
					C498.3,11.1,498.1,11.2,497.9,11.2z"/>
			</g>
		</g>
		<g>
			<g>
				<g>
					<path class="st37" d="M313.3,8.8h-5.9c-0.2,0-0.4-0.2-0.4-0.4c0-0.2,0.2-0.4,0.4-0.4h5.9c0.2,0,0.4,0.2,0.4,0.4
						C313.6,8.7,313.5,8.8,313.3,8.8z"/>
				</g>
			</g>
			<g>
				<g>
					<g>
						<path class="st37" d="M313.3,11.5h-5.9c-0.2,0-0.4-0.2-0.4-0.4c0-0.2,0.2-0.4,0.4-0.4h5.9c0.2,0,0.4,0.2,0.4,0.4
							C313.6,11.3,313.5,11.5,313.3,11.5z"/>
					</g>
				</g>
				<g>
					<g>
						<path class="st37" d="M313.3,6.2h-5.9c-0.2,0-0.4-0.2-0.4-0.4c0-0.2,0.2-0.4,0.4-0.4h5.9c0.2,0,0.4,0.2,0.4,0.4
							C313.6,6,313.5,6.2,313.3,6.2z"/>
					</g>
				</g>
			</g>
		</g>
		<path class="st30" d="M365.6,71.5h-41.4c-1.1,0-2-0.9-2-2l0,0c0-1.1,0.9-2,2-2h41.4c1.1,0,2,0.9,2,2l0,0
			C367.6,70.7,366.7,71.5,365.6,71.5z"/>
		<path class="st30" d="M365.6,62.7h-41.4c-1.1,0-2-0.9-2-2l0,0c0-1.1,0.9-2,2-2h41.4c1.1,0,2,0.9,2,2l0,0
			C367.6,61.8,366.7,62.7,365.6,62.7z"/>
		<path class="st30" d="M365.6,80.4h-41.4c-1.1,0-2-0.9-2-2l0,0c0-1.1,0.9-2,2-2h41.4c1.1,0,2,0.9,2,2l0,0
			C367.6,79.5,366.7,80.4,365.6,80.4z"/>
		<path class="st38" d="M357.9,134.6h-2.1v-0.1c0-0.7-0.6-1.3-1.3-1.3h-10.2c-0.7,0-1.3,0.6-1.3,1.3v1.5c0,0.7,0.6,1.3,1.3,1.3h10.2
			c0.7,0,1.3-0.6,1.3-1.3v-0.1h1.5v3.7h-7.9c-0.3,0-0.6,0.3-0.6,0.6v4.7c-0.8,0.3-1.3,1-1.3,1.8v3c-0.4,0.3-1,0.6-1.7,1
			c-1.2,0.6-1.7,1.4-1.9,2c-3.6,0.9-8.5,2.1-12.9,2.9c-5.3,1-9.9,1.4-11.1,1.6c-0.2,0-0.4,0.1-0.6,0.1c-0.2-0.3-0.5-0.5-0.8-0.7
			c0,0-4,0.8-7.1,1.2c-0.3,0-1.3,0.3-2.7,0.5c-0.1-0.5-0.1-0.9-0.1-1.3c1.1-0.4,2.1-1.1,2.8-2.3c2.9-5.1,1.8-9.8,0.1-13l0,0
			c0,0-2-8.4-11.6-5.8c-6.4,1.7-8.1,13.4-8.5,20.9c-0.2-0.1-0.4-0.2-0.7-0.4c-1.6-1-3.4-2.3-5-4.2c-1.6-1.8-2.9-4.2-3.7-6.5
			c-0.6-1.7-1-3.3-1.2-4.8c0.5-0.4,1-1.2,1-2.8c-0.1-3,0.4-3.8,0.8-4.4c0.4-0.5-0.9-1.3-1.7,0.7c-0.9,2-0.9,2-0.9,2
			s-1.1-4.5-2.7-5.8c-0.2-0.2-0.4-0.2-0.6-0.2v10c0.2,0.2,0.5,0.4,0.7,0.5c-0.2,1.7-0.2,3.7,0.2,5.8c0.2,1.5,0.6,3,1.2,4.6
			c0.6,1.5,1.4,3,2.2,4.3c1.8,2.7,4.1,4.8,6,6.1c2,1.4,3.6,2.2,4.2,2.4c0.3,0.1,0.6,0.2,0.8,0.3c-0.1,0.5-0.2,0.9-0.2,1.4
			c0,0,1.6,0.7,4.9,1c0,0,7,4.9,2.4,15.5c-1.2,2.6-2.1,5.3-3,7.8h22c-0.7-2.7-1.6-5.4-2.7-7.8c-3.8-8.3,1.2-10,1.3-15.7
			c0,0,2.3-0.1,3.7-1.4c0,0,0.1-0.7,0.2-1.7c1.4-0.2,6.3-1,11.6-2.6c4.5-1.4,9.3-3.4,12.7-5.2c0.5,0.3,1.3,0.5,2.4,0.5v2
			c0,1.1,0.9,1.9,1.9,1.9c1.1,0,1.9-0.9,1.9-1.9v-2.9c2.7-1.3,4.7-3.9,3.1-4.5c-0.8-0.3-1.9-0.2-3.1-0.1v-4.1c0-0.9-0.6-1.6-1.3-1.8
			v-4.1h7.9c0.3,0,0.6-0.3,0.6-0.6v-4.9C358.5,134.9,358.2,134.6,357.9,134.6z"/>
		<path class="st38" d="M521,44.2c-1.8,0.9-4,4.9-4,4.9s0,0-0.4-2.2c-0.4-2.2-1.8-1.8-1.5-1.2c0.3,0.6,0.5,1.5-0.2,4.5
			c-0.4,1.5-0.1,2.5,0.3,3c-0.6,1.4-1.3,2.9-2.3,4.4c-1.4,2.1-3.1,4-5.1,5.4c-1.8,1.3-3.8,2.1-5.5,2.7c-0.4-1.2-0.7-1.9-0.7-1.9
			c-4.2,3.6-9,4.3-12.7,4.1c0.3-1.9,0.3-3.4,0.3-4.4c0.4-0.2,0.8-0.4,1.2-0.6c0.4-0.2,0.9-0.5,1.3-0.8c2.4-0.7,4.2-2.9,5.5-5.3
			c2-3.9,1.9-9.4-2.3-12.6c-4.2-3.1-7.7-2.9-12.9-2.6c0,0-1.3,2.4,0.3,5.5c-2.8,2.4-5.8,6.7-4.4,12.9c0.5,2.5,2.7,4,5.4,4.4
			c0,0.6-0.1,1.4-0.2,2.5c-0.2,0-0.3-0.1-0.3-0.1c-3.1-0.5-9.9-4.5-9.9-4.5c-0.8,0.5-1.6,1.3-2.3,2.2c-0.2-0.1-0.3-0.3-0.5-0.5
			c-1.2-1.2-2.4-2.9-3.3-5.1c-0.2-0.5-0.5-1.1-0.6-1.7c-0.2-0.6-0.3-1.2-0.5-1.8c-0.1-0.3-0.2-0.6-0.2-0.9l-0.1-0.9
			c-0.1-0.3-0.1-0.6-0.2-0.9c-0.1-0.3-0.1-0.6-0.1-0.9c0-0.6-0.1-1.2-0.1-1.8c0-0.6-0.1-1.2-0.1-1.7c0-0.4,0-0.8,0-1.2
			c0.6-0.3,1.2-1,1.5-2.6c0.4-3,1-3.7,1.5-4.2c0.5-0.5-0.7-1.5-1.9,0.4c-0.4,0.6-0.7,1.1-0.8,1.3c-0.3,0.5-0.3,0.5-0.3,0.5
			s-0.5-4.7-1.8-6.3c-1.4-1.6-3.7,2.7-3.1,6.2c0.3,2.2,0.9,3.5,1.6,4.2c-0.1,0.4-0.2,0.7-0.3,1.1c-0.2,0.6-0.3,1.2-0.4,1.9
			c-0.1,0.7-0.2,1.3-0.3,2c-0.1,0.3-0.1,0.7-0.1,1.1c0,0.4,0,0.7,0,1.1c0,0.4,0,0.7,0,1.1c0,0.4,0,0.8,0.1,1.1
			c0.1,0.8,0.2,1.5,0.3,2.3c0.1,0.8,0.4,1.5,0.5,2.3c0.8,3,2.4,5.7,3.9,7.6c0.8,0.9,1.5,1.7,2.1,2.2c-0.2,0.5-0.3,0.8-0.3,0.8v0
			c1.2,1.2,2.7,2,4.1,2.7c0.6,0.3,1.1,0.5,1.7,0.7c0.5,0.2,1.1,0.4,1.6,0.5c0.7,0.2,1.4,0.4,1.9,0.5c0.3,0.1,0.6,0.1,0.8,0.1
			c0.2,0,0.3,0,0.3,0c0.1,3.2,0,6.2-0.3,9.1c-0.1,0.8-0.2,1.6-0.2,2.4c0,0.4-0.1,0.8-0.1,1.2c-0.3,2.3-0.7,4.4-1.1,6.3
			c-0.1,0.3-0.1,0.6-0.2,0.9c-0.1,0.6-0.3,1.2-0.4,1.7c0,0.2-0.1,0.3-0.1,0.5l-0.7,0l-0.1-6.1c0-0.7-0.6-1.2-1.3-1.3
			c-0.7,0-1.3,0.5-1.2,1.2l0.3,16.5l0,0v0l1,63.6l0.1,9v0l0,0l0.2,9.6h36.3l0-0.6v0l0,0l-0.3-26.8v0v0l-0.1-9l0,0c0,0,0,0,0,0
			l-0.1-9l0,0v0l-0.1-9v0l0,0l-0.1-9.1v0l0,0l-0.1-9.1v0l0,0l-0.2-18.2v0v0l-0.1-7.3c0-0.7-0.6-1.2-1.3-1.3c-0.7,0-1.2,0.5-1.2,1.2
			l0.1,6l-3.9-0.1c-0.2-0.4-0.4-0.8-0.5-1.2c-0.5-1.1-0.9-2.2-1.2-3.4c-0.4-1.1-0.7-2.3-0.9-3.4c-1.8-7.4-1.7-13.9-1.7-13.9
			c0.2,0,0.4,0,0.6,0c0.6,0,1.3-0.1,1.9-0.2c1.8-0.4,3.5-1.1,4.2-1.5c0.2-0.1,0.4-0.2,0.4-0.2c-0.1-0.8-0.2-1.7-0.4-2.5
			c0,0,0.1,0,0.1,0c2.2-0.8,5-2.2,7.3-4.4c1.2-1.1,2.3-2.3,3.2-3.6c0.9-1.3,1.7-2.7,2.2-4.1c0.8-2,1.3-3.9,1.5-5.6
			c1.3-0.4,2.6-1.4,2.9-3.3C521.9,47.9,522.8,43.4,521,44.2z M494.4,131.4l-9,0c-0.1-2.2-0.2-4.5-0.2-6.8l8.2,0
			C493.8,127,494.1,129.3,494.4,131.4z M492.5,118.1c0.2,1.3,0.4,2.7,0.6,4l-8,0c0-1.5-0.1-3-0.1-4.4c0-0.8,0-1.6,0-2.3l7.1,0
			C492.2,116.3,492.4,117.2,492.5,118.1z M485.2,107.9c0-0.6,0.1-1.1,0.1-1.6l0.6,0c0.5,0.1,1,0.1,1.6,0.1c0.8,0,1.6-0.1,2.3-0.2
			l0.7,0c0.1,0.7,0.3,1.5,0.5,2.3c0.2,1.3,0.5,2.8,0.8,4.4l-6.6,0C485,111.1,485.1,109.4,485.2,107.9z M473.2,97.4l0-0.2l0,0
			C473.2,97.3,473.2,97.3,473.2,97.4z M473.3,103.9l-0.1-3.8c1.1,0.4,2.3,0.7,3.4,1c0,0.1,0,0.1,0,0.2c0,0.1,0,0.2,0,0.3
			c0,0.1,0,0.1,0,0.2c0,0,0,0.1,0,0.1c0,0.5-0.1,1.1-0.1,1.9L473.3,103.9z M473.5,113l-0.1-6.7l3,0c0,0.4,0,0.8,0,1.3
			c0,1.6,0.1,3.5,0.3,5.4L473.5,113z M473.6,115.5l3.4,0c0.1,0.9,0.2,1.8,0.3,2.7c0.2,1.3,0.4,2.7,0.6,4l-4.1,0L473.6,115.5z
			 M473.8,124.7l4.5,0c0.4,2.3,0.9,4.6,1.4,6.8l-5.7,0L473.8,124.7z M474,134l6.2,0c0.3,1.3,0.6,2.5,1,3.6c-0.4,0.4-0.8,0.9-1.1,1.7
			c-0.2,0.6-0.2,1.1-0.2,1.6l-5.8,0L474,134z M506.4,181.2l0.2,7l-31.4,0l-0.2-7L506.4,181.2z M506.3,178.7l-31.3,0l-0.2-7l31.2,0
			L506.3,178.7z M505.8,162.1l0.2,7l-31.2,0l-0.2-6.9L505.8,162.1z M505.7,159.6l-31.1,0l-0.1-6.9l31.1,0L505.7,159.6z M505.1,140.8
			l-3.1,0c0-0.1,0-0.1,0-0.2c-0.1-0.3-0.2-0.7-0.4-1c-0.5-0.9-1.3-1.6-2.1-2c0.2-1.1,0.3-2.3,0.4-3.6l5,0L505.1,140.8z M504.8,131.4
			l-4.7,0c0.1-2.1,0.2-4.4,0.3-6.8l4.2,0L504.8,131.4z M504.5,122.1l-4.2,0c0-1.5,0-3.1-0.1-4.6c0-0.7-0.1-1.5-0.1-2.2l4.1,0
			L504.5,122.1z M504.2,112.9l-4.2,0c-0.1-2-0.3-3.9-0.5-5.5c0-0.4-0.1-0.8-0.1-1.2l4.6,0L504.2,112.9z M502.7,99.7
			c-0.6-0.8-1.1-1.7-1.6-2.6l2.6,0l0.2,6.7l-4.9,0c0-0.3-0.1-0.5-0.1-0.8h0c0,0,0,0,0-0.1c0-0.2-0.1-0.4-0.1-0.6c0-0.1,0-0.1,0-0.2
			c0-0.1,0-0.1,0-0.2c0-0.1,0-0.2-0.1-0.3c0-0.2-0.1-0.5-0.2-0.7C501.1,100.3,502.7,99.7,502.7,99.7z M496,143.3l3.8,0
			c0.1,0,0.1,0,0.2,0l5.2,0l0.2,6.9l-31,0l-0.1-6.9l21.6,0C495.8,143.3,495.9,143.3,496,143.3z M494.8,134c0.2,1.3,0.4,2.6,0.6,3.7
			c-0.6,0.4-1.1,0.9-1.5,1.9c-0.2,0.4-0.3,0.8-0.3,1.2l-5.4,0c0.1-0.3,0.1-0.7,0-1.1c-0.1-0.3-0.2-0.6-0.4-1
			c-0.6-0.9-1.4-1.5-2.2-1.9c0-0.9,0-1.9-0.1-2.9L494.8,134z"/>
		<path class="st38" d="M457.4,130.2l-8.8-3.1c-2.1-0.7-4.5,0.4-5.5,2.6l-3.9,9c-0.9,2.1,0,4.5,2.1,5.2l8.8,3.1c0,0,0.1,0,0.1,0
			c0.2,0.4,0.3,0.8,0.5,1.3c0.4,1.2,1,1.9,1.5,2.2c-0.4,1.7-0.7,3.7-1.2,5.8c-0.2,0.7-0.3,1.4-0.4,2.1c-0.2,0.7-0.4,1.4-0.5,2.1
			c-0.3,1.4-0.8,2.8-1.2,4.2c-0.7,2.1-1.4,4-2.2,5.6c-0.8-1.4-1.4-2.3-1.4-2.3c-4.5,4.6-8,6.9-10.5,7.9c0.2-1,0.2-1.9,0.3-2.7
			c1.2-0.6,2.5-1.4,3.7-2.5c2-1.9,3.3-4.2,4.1-6.5c0.2,0.1,0.3,0.1,0.5,0.1c2.1,0,4.8-5.5,2.6-6.4c-0.5-0.2-1-0.2-1.4-0.1
			c0-0.3,0-0.7,0-1c-0.5-6.4-4-9.3-11.3-8.2c-7.3,1.1-9.2,7.7-9.2,7.7c0,0.1-0.1,0.3-0.1,0.4c-0.4-0.2-0.8-0.2-1.4-0.1
			c-2.5,0.6-1.5,6.3,0.5,6.6c0.3,0.1,0.6,0,0.9-0.2c-0.1,2.3,0.3,4.7,1.4,7.3c0.6,1.5,1.7,2.6,3,3.2c0,0.8-0.1,1.8-0.3,2.8
			c-3.4-1.3-8-5.6-8-5.6c0,0,0,0,0,0c-0.1-0.2-0.2-0.4-0.3-0.5c-0.2-0.3-0.4-0.6-0.6-1c-0.8-1.4-1.6-3.4-2.1-5.7
			c-0.1-0.6-0.3-1.1-0.4-1.7c-0.1-0.6-0.2-1.2-0.3-1.8c-0.1-0.6-0.1-1.2-0.2-1.9c0-0.6-0.2-1.2-0.2-1.8c0-0.6-0.1-1.2-0.1-1.8
			c0-0.6-0.1-1.2-0.1-1.7c0-0.6,0-1.2,0-1.8c0.1,0,0.2,0,0.3-0.1c0.7-0.2,1.7-0.8,2.6-2.5c0.4-0.7,0.7-1.3,1-1.8l1.2,0.4
			c2.1,0.7,4.5-0.4,5.5-2.6l3.9-9c0.9-2.1,0-4.5-2.1-5.2l-8.8-3.1c-2.1-0.7-4.5,0.4-5.5,2.6l-3.9,9c-0.9,2.1,0,4.5,2.1,5.2l0.7,0.2
			c0,0.1-0.1,0.3-0.1,0.4c-0.5,2.4-0.4,3.9,0.1,4.9c-0.3,0.9-0.6,2-1,3.1c-0.2,0.6-0.3,1.2-0.4,1.9c-0.1,0.7-0.2,1.3-0.4,2
			c-0.1,0.7-0.2,1.4-0.2,2.1c-0.1,0.7-0.2,1.4-0.2,2.2c0,0.7,0,1.5,0,2.2c0,0.7,0.1,1.5,0.2,2.2c0.3,2.9,1,5.6,1.9,7.6
			c0.2,0.5,0.4,1,0.6,1.4c0.2,0.4,0.4,0.8,0.6,1.2c0.4,0.7,0.7,1.2,0.9,1.5c0,0,0,0,0,0c-0.8,1.3-1.2,2.3-1.2,2.3
			c2.7,6.2,6.9,7.8,6.9,7.8c-0.1,1.1-0.2,2.3-0.2,3.4h22.1c0.3-3.9,0.7-6.5,0.7-6.5c3.8,0.1,6.7-3.4,6.7-3.4c0-0.4,0-0.7-0.1-1.1
			c0,0,0,0,0,0c0.3-0.3,0.7-1,1.3-1.8c0.3-0.4,0.5-0.9,0.8-1.4c0.3-0.5,0.6-1.1,0.8-1.7c1.1-2.4,2-5.4,2.6-8.5
			c1.1-5.6,1.1-11.6,0.7-15.7c1-0.8,1.6-2.5,1.6-5.6c0-1-0.3-2.1-0.6-3l2.6-6.2C460.4,133.3,459.5,131,457.4,130.2z"/>
	</g>
	<g>
		<g>
			<g>
				<path class="st39" d="M476.6,257.1c-0.7,0-1.2-0.6-1.2-1.2V90.1c0-0.7,0.6-1.2,1.2-1.2c0.7,0,1.2,0.6,1.2,1.2v165.8
					C477.8,256.5,477.3,257.1,476.6,257.1z"/>
			</g>
		</g>
		<g>
			<g>
				<path class="st39" d="M510.5,257.1c-0.7,0-1.2-0.6-1.2-1.2V90.1c0-0.7,0.6-1.2,1.2-1.2c0.7,0,1.2,0.6,1.2,1.2v165.8
					C511.7,256.5,511.2,257.1,510.5,257.1z"/>
			</g>
		</g>
		<g>
			<g>
				<path class="st39" d="M510.5,98.6h-33.9c-0.7,0-1.2-0.6-1.2-1.2c0-0.7,0.6-1.2,1.2-1.2h33.9c0.7,0,1.2,0.6,1.2,1.2
					C511.7,98,511.2,98.6,510.5,98.6z"/>
			</g>
			<g>
				<path class="st39" d="M510.5,107.8h-33.9c-0.7,0-1.2-0.6-1.2-1.2c0-0.7,0.6-1.2,1.2-1.2h33.9c0.7,0,1.2,0.6,1.2,1.2
					C511.7,107.3,511.2,107.8,510.5,107.8z"/>
			</g>
			<g>
				<path class="st39" d="M510.5,117h-33.9c-0.7,0-1.2-0.6-1.2-1.2c0-0.7,0.6-1.2,1.2-1.2h33.9c0.7,0,1.2,0.6,1.2,1.2
					C511.7,116.5,511.2,117,510.5,117z"/>
			</g>
			<g>
				<path class="st39" d="M510.5,126.2h-33.9c-0.7,0-1.2-0.6-1.2-1.2c0-0.7,0.6-1.2,1.2-1.2h33.9c0.7,0,1.2,0.6,1.2,1.2
					C511.7,125.7,511.2,126.2,510.5,126.2z"/>
			</g>
			<g>
				<path class="st39" d="M510.5,135.4h-33.9c-0.7,0-1.2-0.6-1.2-1.2c0-0.7,0.6-1.2,1.2-1.2h33.9c0.7,0,1.2,0.6,1.2,1.2
					C511.7,134.9,511.2,135.4,510.5,135.4z"/>
			</g>
			<g>
				<path class="st39" d="M510.5,144.7h-33.9c-0.7,0-1.2-0.6-1.2-1.2c0-0.7,0.6-1.2,1.2-1.2h33.9c0.7,0,1.2,0.6,1.2,1.2
					C511.7,144.1,511.2,144.7,510.5,144.7z"/>
			</g>
			<g>
				<path class="st39" d="M510.5,153.9h-33.9c-0.7,0-1.2-0.6-1.2-1.2c0-0.7,0.6-1.2,1.2-1.2h33.9c0.7,0,1.2,0.6,1.2,1.2
					C511.7,153.3,511.2,153.9,510.5,153.9z"/>
			</g>
			<g>
				<path class="st39" d="M510.5,163.1h-33.9c-0.7,0-1.2-0.6-1.2-1.2c0-0.7,0.6-1.2,1.2-1.2h33.9c0.7,0,1.2,0.6,1.2,1.2
					C511.7,162.5,511.2,163.1,510.5,163.1z"/>
			</g>
			<g>
				<path class="st39" d="M510.5,172.3h-33.9c-0.7,0-1.2-0.6-1.2-1.2c0-0.7,0.6-1.2,1.2-1.2h33.9c0.7,0,1.2,0.6,1.2,1.2
					C511.7,171.7,511.2,172.3,510.5,172.3z"/>
			</g>
			<g>
				<path class="st39" d="M510.5,181.5h-33.9c-0.7,0-1.2-0.6-1.2-1.2c0-0.7,0.6-1.2,1.2-1.2h33.9c0.7,0,1.2,0.6,1.2,1.2
					C511.7,180.9,511.2,181.5,510.5,181.5z"/>
			</g>
			<g>
				<path class="st39" d="M510.5,190.7h-33.9c-0.7,0-1.2-0.6-1.2-1.2c0-0.7,0.6-1.2,1.2-1.2h33.9c0.7,0,1.2,0.6,1.2,1.2
					C511.7,190.2,511.2,190.7,510.5,190.7z"/>
			</g>
			<g>
				<path class="st39" d="M510.5,199.9h-33.9c-0.7,0-1.2-0.6-1.2-1.2s0.6-1.2,1.2-1.2h33.9c0.7,0,1.2,0.6,1.2,1.2
					S511.2,199.9,510.5,199.9z"/>
			</g>
			<g>
				<path class="st39" d="M510.5,209.1h-33.9c-0.7,0-1.2-0.6-1.2-1.2c0-0.7,0.6-1.2,1.2-1.2h33.9c0.7,0,1.2,0.6,1.2,1.2
					C511.7,208.6,511.2,209.1,510.5,209.1z"/>
			</g>
			<g>
				<path class="st39" d="M510.5,218.3h-33.9c-0.7,0-1.2-0.6-1.2-1.2c0-0.7,0.6-1.2,1.2-1.2h33.9c0.7,0,1.2,0.6,1.2,1.2
					C511.7,217.8,511.2,218.3,510.5,218.3z"/>
			</g>
			<g>
				<path class="st39" d="M510.5,227.6h-33.9c-0.7,0-1.2-0.6-1.2-1.2c0-0.7,0.6-1.2,1.2-1.2h33.9c0.7,0,1.2,0.6,1.2,1.2
					C511.7,227,511.2,227.6,510.5,227.6z"/>
			</g>
			<g>
				<path class="st39" d="M510.5,236.8h-33.9c-0.7,0-1.2-0.6-1.2-1.2c0-0.7,0.6-1.2,1.2-1.2h33.9c0.7,0,1.2,0.6,1.2,1.2
					C511.7,236.2,511.2,236.8,510.5,236.8z"/>
			</g>
			<g>
				<path class="st39" d="M510.5,246h-33.9c-0.7,0-1.2-0.6-1.2-1.2c0-0.7,0.6-1.2,1.2-1.2h33.9c0.7,0,1.2,0.6,1.2,1.2
					C511.7,245.4,511.2,246,510.5,246z"/>
			</g>
		</g>
	</g>
	<g>
		<path class="st40" d="M469.6,45.9c0.6-0.3,1.2-1,1.5-2.6c0.4-3,1-3.7,1.5-4.2c0.5-0.5-0.7-1.5-1.8,0.4c-0.4,0.6-0.7,1-0.8,1.3
			L469.6,45.9z"/>
		<rect x="310.1" y="21.1" class="st23" width="203.9" height="19.5"/>
		<rect x="316.3" y="33.9" class="st27" width="178.2" height="0.9"/>
		<path class="st40" d="M469.9,40.8c-0.3,0.5-0.3,0.5-0.3,0.5s-0.4-4.6-1.7-6.2c-1.3-1.5-3.6,2.8-3.1,6.2c0.6,4.3,2.1,5.1,3.8,4.8
			c0,0,0.4,0,1-0.3L469.9,40.8z"/>
		<g>
			<g>
				<g>
					<path class="st27" d="M507.6,35.6c-0.1,0-0.2,0-0.3-0.1l-3.1-3.1c-0.2-0.2-0.2-0.5,0-0.7c0.2-0.2,0.5-0.2,0.7,0l3.1,3.1
						c0.2,0.2,0.2,0.5,0,0.7C507.9,35.6,507.8,35.6,507.6,35.6z"/>
				</g>
				<g>
					<path class="st27" d="M501.6,26c0.9,0,1.7,0.3,2.3,0.9c1.2,1.2,1.2,3.3,0,4.5c-0.6,0.6-1.4,0.9-2.3,0.9c-0.9,0-1.7-0.3-2.3-0.9
						c-1.2-1.2-1.2-3.3,0-4.5C500,26.3,500.8,26,501.6,26 M501.6,25c-1.1,0-2.1,0.4-2.9,1.2c-1.6,1.6-1.6,4.2,0,5.9
						c0.8,0.8,1.9,1.2,2.9,1.2c1.1,0,2.1-0.4,2.9-1.2c1.6-1.6,1.6-4.2,0-5.9C503.8,25.4,502.7,25,501.6,25L501.6,25z"/>
				</g>
				<g>
					<path class="st27" d="M505.3,33.7c-0.2,0-0.5-0.1-0.7-0.3l-0.7-0.7c-0.4-0.4-0.4-1,0-1.3c0.4-0.4,1-0.4,1.3,0l0.7,0.7
						c0.4,0.4,0.4,1,0,1.3C505.8,33.6,505.5,33.7,505.3,33.7z"/>
				</g>
			</g>
		</g>
		<g>
			<g>
				<path class="st40" d="M488,44.5c-3,2.1-7.3,6.8-5.9,14c0.9,4.6,7,5.6,12.3,2.6c5.3-3,6.9-8.6,6.2-12.5
					C500,44.7,492.8,41.1,488,44.5z"/>
				<g>
					<path class="st40" d="M489.7,70.1c-0.2,0-0.4,0-0.6-0.1c-1.6-0.4-2.6-1.9-2.2-3.5c0.8-3.8,0.4-5.3,0.4-5.3
						c0,0.1,0.1,0.2,0.1,0.2l5.4-2.4c0.3,0.6,1.1,3.1-0.2,8.7C492.3,69.2,491.1,70.1,489.7,70.1z"/>
				</g>
				<path class="st41" d="M487.9,47.3c0,0-2.1,3.3-2.9,4.5c0,0,1.4,1.1,2.4-0.2s1.7-3.6,3.7-3.6c1.3,0,1.1,1.4,0.6,2.5
					c-0.9,1.7-2.3,2.6-3.2,2.5c0,0-2.4,3.8,2.4,6.5c4.8,2.7,8.3-0.8,10.3-4.7c2-3.9,2-9.4-2.1-12.4c-4-2.9-7.5-2.7-12.6-2.3
					C486.4,40.1,484.5,43.6,487.9,47.3z"/>
			</g>
			<g>
				<path class="st40" d="M519.8,49.3c-0.7,1.7-1.7,4-3.1,6.1c-1.4,2.1-3.1,4.1-5.1,5.5c-2,1.4-4.1,2.3-5.8,2.9
					c-1.8,0.5-3.1,0.8-3.7,0.9c-2.9,0.5-4,1.3-4.2,3.6c-0.1,1.1,0.3,2,1.2,2.5c0.9,0.5,2.3,0.7,4.1,0.4c0.7-0.1,2.5-0.5,4.7-1.4
					c2.2-0.9,4.9-2.3,7.3-4.5c1.2-1.1,2.3-2.3,3.2-3.7c0.9-1.3,1.7-2.7,2.3-4.1c1.2-2.8,1.6-5.5,1.8-7.5L519.8,49.3z"/>
			</g>
			<g>
				<path class="st40" d="M467,43.5c-0.3,0.9-0.6,1.9-1,3.1c-0.2,0.6-0.3,1.2-0.4,1.9c-0.1,0.7-0.2,1.3-0.3,2
					c-0.1,0.3-0.1,0.7-0.1,1.1c0,0.4,0,0.7,0,1.1c0,0.4,0,0.7,0,1.1c0,0.4,0,0.7,0,1.1c0.1,0.8,0.2,1.5,0.2,2.3
					c0.1,0.8,0.3,1.5,0.5,2.2c0.8,2.9,2.2,5.6,3.7,7.4c0.8,0.9,1.5,1.7,2.1,2.2c0.3,0.3,0.6,0.5,0.8,0.7c0.2,0.2,0.4,0.3,0.6,0.4
					c1.5,1.1,2.9,1.4,3.9,1.3c1-0.2,1.7-0.8,2-1.9c0.3-1.1,0.3-1.9,0-2.7c-0.3-0.7-1-1.3-2-2.1c-0.1-0.1-0.2-0.2-0.4-0.3
					c-0.2-0.1-0.4-0.3-0.6-0.5c-0.5-0.3-0.9-0.8-1.5-1.4c-1.1-1.2-2.3-2.9-3.1-5c-0.2-0.5-0.4-1.1-0.6-1.6c-0.1-0.6-0.3-1.2-0.4-1.7
					c-0.1-0.3-0.1-0.6-0.2-0.9l-0.1-0.9c0-0.3-0.1-0.6-0.1-0.9c-0.1-0.3-0.1-0.6-0.1-0.9c0-0.6-0.1-1.2-0.1-1.8c0-0.6-0.1-1.2,0-1.7
					c0-1.1,0-2.1,0-3L467,43.5z"/>
			</g>
			<path class="st29" d="M482.6,101.3c0,0,2.9,6.6,9.7,6.6c6.7,0,10.7-3.4,9.6-10.5C501.9,97.5,488,95.1,482.6,101.3z"/>
			<g>
				<g>
					<path class="st42" d="M503.5,140.1c1-5.1,1.6-13.4,1.6-20.9c0-3.8-0.2-7.3-0.4-10.2c-0.2-2.8-0.6-5-0.7-5.8
						c-0.8-4.5-2.9-6.3-5.9-5.2c-3,1-3.9,2.8-3.2,6.9c0.1,0.8,0.5,2.7,1,5.3c0.4,2.6,1,6,1.4,9.6c1,7.2,1.7,15.3,2.6,20.3
						L503.5,140.1z"/>
				</g>
			</g>
			<g>
				<g>
					<path class="st29" d="M489.5,140.7c0.2-5.3-0.1-13.8,0-21.3c0-3.7,0.2-7.2,0.4-10c0.2-2.7,0.5-4.6,0.6-5.4c0.3-2,0.3-3.2-0.2-4
						c-0.2-0.4-0.6-0.7-1-1.1c-0.2-0.2-0.4-0.5-0.6-0.7c-0.2-0.3-0.5-0.5-0.8-0.8c-0.3-0.3-0.6-0.5-0.9-0.7c-0.3-0.2-0.6-0.3-1-0.3
						c-0.8,0-1.5,0.3-2.2,0.9c-1.3,1.1-2.2,3-2.5,5.6c-0.1,1-0.3,3.3-0.3,6.3c0,3,0.2,6.8,0.6,10.7c0.8,7.8,2.5,16.3,4.2,21.4
						L489.5,140.7z"/>
				</g>
				<g>
					<path class="st29" d="M503.5,140.1c1-5.1,1.6-13.4,1.6-20.9c0-3.8-0.2-7.3-0.4-10.2c-0.2-2.8-0.6-5-0.7-5.8
						c-0.8-4.5-2.9-6.3-5.9-5.2c-3,1-3.9,2.8-3.2,6.9c0.1,0.8,0.5,2.7,1,5.3c0.4,2.6,1,6,1.4,9.6c1,7.2,1.7,15.3,2.6,20.3
						L503.5,140.1z"/>
				</g>
				<path class="st43" d="M504.1,104.5c-0.1-0.6-0.2-1.1-0.2-1.4c-0.4-2.1-1-3.5-1.9-4.4c0-0.4-0.1-0.8-0.1-1.3
					c0,0-7.3-1.2-13.4,0.5c-0.2-0.2-0.4-0.4-0.6-0.6c-0.3-0.3-0.6-0.5-0.9-0.7c-0.3-0.2-0.6-0.3-1-0.3c-0.8,0-1.5,0.3-2.2,0.9
					c-1.3,1.1-2.2,3-2.5,5.6c0,0.3-0.1,0.8-0.2,1.4C490.3,106.7,499,105.7,504.1,104.5z"/>
			</g>
			<path class="st23" d="M486.8,65c0.8,0.1,10.7,3.8,18.7-3.3c0,0,2.2,5.1,2.8,10.5c0,0-3.7,2.1-7,2c0,0-0.4,16.6,6.9,27
				c0,0-15.2,5.9-31.1,0c0,0,4.5-12.7,4.2-27.1c0,0-6.2-0.7-9.9-4.4c0,0,2.6-7,5.8-8.9C477.1,60.8,483.7,64.5,486.8,65z"/>
			<path class="st23" d="M501.3,74.3c3.3,0.1,7-2,7-2s-4.4,1.7-8.5,0.5c0,0-0.9,19.9,8.4,28.4C500.9,90.9,501.3,74.3,501.3,74.3z"/>
			<path class="st23" d="M484.8,73.3c-8.9-0.7-12.5-3.6-12.5-3.6c3.7,3.6,9.9,4.4,9.9,4.4c0.3,14.4-4.2,27.1-4.2,27.1
				C484.6,92.4,484.8,73.3,484.8,73.3z"/>
			<path class="st40" d="M519.9,51.6c0,0-1.9-0.7-1.1-3.6c0.8-2.9,0.5-3.8,0.3-4.4c-0.3-0.6,1.2-1.1,1.5,1.1
				c0.3,2.2,0.3,2.2,0.3,2.2s2.2-4.1,4-5c1.8-0.9,0.9,3.6,0.3,6.7C524.6,51.6,521.4,52.6,519.9,51.6z"/>
			<path class="st42" d="M501.5,138.6c-1.1,0.1-2.6,0.3-3.6,2.4c-0.4,0.7-0.4,1.4-0.2,1.9c0.2,1,1.2,1.7,2.3,1.7h3.8
				c1.4,0,2.6-1.3,2.3-2.7c-0.1-0.3-0.2-0.7-0.3-1C504.8,139.3,503.1,138.5,501.5,138.6z"/>
			<path class="st42" d="M487.4,138c-1.1,0.1-2.5,0.5-3.4,2.6c-0.3,0.7-0.3,1.4-0.1,1.9c0.3,1,1.3,1.7,2.4,1.6l3.8-0.2
				c1.4-0.1,2.5-1.4,2.2-2.8c-0.1-0.3-0.2-0.6-0.4-0.9C490.7,138.5,488.9,137.8,487.4,138z"/>
		</g>
	</g>
	<g>
		<g>
			<path class="st40" d="M307.8,136.3c2.2,2.9,4.8,8.7,1.2,15.1c-2.3,4-8.4,3.1-12.5-1.4c-4.1-4.5-3.9-10.3-2-13.8
				C296.3,132.8,304.3,131.6,307.8,136.3z"/>
			<g>
				<path class="st40" d="M303.9,161c-1.4,0-2.6-0.9-2.9-2.3c-1.2-5.6-0.4-8.1-0.2-8.7l5.4,2.4c0,0,0-0.1,0.1-0.2
					c0,0-0.4,1.5,0.4,5.3c0.4,1.6-0.7,3.2-2.2,3.5C304.4,161,304.2,161,303.9,161z"/>
			</g>
		</g>
		<g>
			<path class="st40" d="M275.6,135.7c-0.4,2-0.6,4.7-0.1,7.7c0.2,1.5,0.6,3,1.2,4.6c0.6,1.5,1.4,3,2.2,4.3c1.8,2.7,4.1,4.8,6,6.1
				c2,1.4,3.6,2.2,4.2,2.4c1.7,0.8,3.1,0.9,4.1,0.6c1-0.3,1.6-1,1.8-2.2c0.4-2.3-0.5-3.4-3.2-4.5c-0.5-0.2-1.8-0.8-3.4-1.7
				c-1.6-1-3.4-2.3-5-4.2c-1.6-1.8-2.9-4.2-3.7-6.5c-0.8-2.4-1.2-4.7-1.5-6.6L275.6,135.7z"/>
		</g>
		<g>
			<path class="st40" d="M341.5,149.7c0.1-0.7,0.6-1.5,2-2.3c2.7-1.4,3.1-2.3,3.4-2.9c0.3-0.6,1.6,0.1,0.2,1.9c-0.5,0.6-0.8,1-1,1.2
				L341.5,149.7z"/>
			<path class="st29" d="M347.1,146.7L347.1,146.7c-0.3,0-0.6-0.3-0.6-0.6v-9.2c0-0.3,0.3-0.6,0.6-0.6l0,0c0.3,0,0.6,0.3,0.6,0.6
				v9.2C347.7,146.4,347.5,146.7,347.1,146.7z"/>
			<path class="st29" d="M346.5,136.8L346.5,136.8c0-0.3,0.3-0.6,0.6-0.6h8.5c0.3,0,0.6,0.3,0.6,0.6l0,0c0,0.3-0.3,0.6-0.6,0.6h-8.5
				C346.8,137.5,346.5,137.2,346.5,136.8z"/>
			<path class="st29" d="M355.6,131.3L355.6,131.3c0.3,0,0.6,0.3,0.6,0.6v4.9c0,0.3-0.3,0.6-0.6,0.6l0,0c-0.3,0-0.6-0.3-0.6-0.6
				v-4.9C355,131.6,355.3,131.3,355.6,131.3z"/>
			<path class="st29" d="M356.3,131.9L356.3,131.9c0,0.3-0.3,0.6-0.6,0.6h-6c-0.3,0-0.6-0.3-0.6-0.6l0,0c0-0.3,0.3-0.6,0.6-0.6h6
				C356,131.3,356.3,131.6,356.3,131.9z"/>
			<path class="st44" d="M352.2,134H342c-0.7,0-1.3-0.6-1.3-1.3v-1.5c0-0.7,0.6-1.3,1.3-1.3h10.2c0.7,0,1.3,0.6,1.3,1.3v1.5
				C353.5,133.4,352.9,134,352.2,134z"/>
			<path class="st42" d="M347.1,156.9L347.1,156.9c-1.1,0-1.9-0.9-1.9-1.9v-11.5c0-1.1,0.9-1.9,1.9-1.9l0,0c1.1,0,1.9,0.9,1.9,1.9
				v11.5C349.1,156,348.2,156.9,347.1,156.9z"/>
			<path class="st40" d="M346.2,147.6c-0.4,0.5-0.4,0.5-0.4,0.5s4.5-1.2,6.4-0.6c1.9,0.7-1.3,4.3-4.7,5.1c-4.2,0.9-5.5-0.2-5.8-2
				c0,0-0.2-0.4-0.1-1L346.2,147.6z"/>
			<g>
				<path class="st40" d="M343.4,149c-3.7,0.9-9.5,2.3-14.7,3.3c-5.3,1-9.9,1.4-11.1,1.6c-3.1,0.4-4.3,1.4-4.2,3.7
					c0.1,2.3,1.6,3.3,5,2.9c1.3-0.1,6.3-1,11.7-2.6c5.4-1.6,11.2-4.2,14.4-6.3L343.4,149z"/>
			</g>
		</g>
		<g>
			<path class="st40" d="M312.9,242.7c0.8-2.4,1.6-5.7,2.1-9.3c0.5-3.6,0.8-7.5,0.9-11.1c0.2-7.3-0.2-13.8-0.4-15.5
				c-0.4-4.3-2.1-6-5.3-5.6c-3.2,0.4-4.4,2.3-3.9,6.5c0.2,1.6,1,7.8,1.7,14.8c0.3,3.5,0.6,7.2,0.8,10.6c0.2,3.4,0.3,6.6,0.4,9
				L312.9,242.7z"/>
		</g>
		<g>
			<path class="st40" d="M280.1,228.7c1.3,0.3,2.9,0.6,4.6,0.5c1.7-0.1,3.7-0.4,5.6-1.2c1.9-0.8,3.7-1.9,5.4-3.3
				c0.8-0.7,1.6-1.5,2.3-2.3c0.3-0.4,0.7-0.9,1-1.3c0.1-0.1,0.2-0.2,0.2-0.3l0.2-0.4l0.4-0.8c1-2.1,1.5-3.9,1.9-5.6
				c0.4-1.7,0.7-3.2,0.9-4.6c0.4-2.7,0.6-4.7,0.6-5.5c0.2-4.3-1.3-6.1-4.4-6.1c-3.2,0-4.6,1.6-4.8,5.6c0,0.8-0.1,2.6-0.3,5.1
				c-0.1,1.2-0.2,2.6-0.4,4c-0.2,1.4-0.4,2.9-0.8,4l-0.1,0.4l-0.1,0.2c0,0.1-0.1,0.1-0.1,0.2c-0.1,0.3-0.3,0.6-0.5,0.9
				c-0.3,0.6-0.7,1.2-1.2,1.7c-0.9,1.1-1.9,2-3.1,2.8c-1.1,0.8-2.4,1.3-3.6,1.7c-1.2,0.4-2.4,0.6-3.5,0.8L280.1,228.7z"/>
		</g>
		<path class="st23" d="M309.1,154.4c-0.8,0.1-9.1,2.3-15.3-0.6c0,0-3.5,3.3-4.1,8.8c0,0,1.6,0.7,4.9,1c0,0,7,4.9,2.4,15.5
			c-5.5,12.6-6.9,24.6-9.3,28c0,0,15.2,5.9,31.1,0c0,0-0.4-16.8-5.5-28c-3.8-8.3,1.2-10,1.3-15.7c0,0,2.3-0.1,3.7-1.4
			c0,0,1.1-7-2.1-8.9C316.2,153.2,312.2,153.9,309.1,154.4z"/>
		<path class="st40" d="M277.7,138c0,0,2-0.2,1.9-3.3c-0.1-3,0.4-3.8,0.8-4.4c0.4-0.5-0.9-1.3-1.7,0.7c-0.9,2-0.9,2-0.9,2
			s-1.1-4.5-2.7-5.8c-1.5-1.3-1.7,3.2-1.9,6.4C273.1,136.8,276,138.6,277.7,138z"/>
		<path class="st41" d="M309,240.1c0,0,3.4,0.7,4.7,0c0,0,1.7,0.9,4.3,0.7c2.6-0.2,4.3,0.1,4,1.7c-0.3,1.5-9.9,2.9-12.4,1.7
			c-1.3-0.6-0.5-4.4-0.5-4.4"/>
		<path class="st41" d="M282.8,224.4c0,0-1.8,3-1.6,4.4c0,0-1.4,1.3-2.1,3.8c-0.7,2.5-1.6,4-2.9,3.2c-1.3-0.8,0.7-10.3,2.6-12.2
			c1.1-1,4.3,1,4.3,1"/>
		<path class="st39" d="M309.2,138.4c0,0-6.3,7.6-7.7,22.6c0,0-7.4,1.9-12.5-1.1c0,0-1-24.8,8.6-27.3
			C307.2,130,309.2,138.4,309.2,138.4z"/>
		<path class="st40" d="M308.3,141.5c0,0-1.1-2.7-3.3-1.8s0,5.9,2,5.9C309,145.6,308.3,141.5,308.3,141.5z"/>
	</g>
	<g>
		<g>
			<path class="st40" d="M431.7,153.3c-2.6,3.3-4.9,9.7-1.1,17.1c2.5,4.7,8.6,5.4,13.5,0.4c4.8-5,4.7-13.2,2.7-17.1
				C444.9,149.7,435.9,148.1,431.7,153.3z"/>
			<g>
				<path class="st40" d="M436.7,182.5c-0.3,0-0.7-0.1-1-0.2c-1.8-0.6-2.7-2.4-2.2-4.2c0.7-2.2,0.4-5.3,0.3-6.3
					c-0.3-1.8,0.9-3.5,2.8-3.8c1.8-0.3,3.5,0.9,3.8,2.8c0.1,0.5,0.8,5.3-0.5,9.4C439.5,181.6,438.1,182.5,436.7,182.5z"/>
			</g>
		</g>
		<g>
			<path class="st40" d="M456.1,149c-0.4,2-0.5,4.6-0.9,7.4c-0.1,0.7-0.2,1.4-0.3,2.1c-0.1,0.7-0.2,1.4-0.4,2.1
				c-0.2,1.4-0.5,2.8-0.8,4.2c-0.7,2.7-1.4,5.1-2.2,6.8c-0.2,0.5-0.4,0.8-0.6,1.2c-0.2,0.3-0.3,0.7-0.5,0.9
				c-0.3,0.5-0.6,0.9-0.7,1.1c-0.8,1.1-1.1,1.7-1.2,2.4c0,0.8,0.1,1.7,0.5,2.9c0.3,1.2,1.2,2,2.6,1.9c1.3-0.1,2.9-1,4.2-2.8
				c0.3-0.3,0.6-1,1.1-1.8c0.3-0.4,0.4-0.9,0.7-1.4c0.2-0.5,0.5-1.1,0.7-1.7c0.9-2.4,1.5-5.4,1.9-8.5c0.7-6.3,0-13-0.9-17.1
				L456.1,149z"/>
		</g>
		<path class="st40" d="M419.7,150.9c0.7-0.2,1.7-0.8,2.3-2.5c1.3-3.2,2.2-3.8,2.8-4.2c0.6-0.4-0.3-1.8-2.1,0c-0.6,0.6-1,1-1.3,1.2
			L419.7,150.9z"/>
		<path class="st41" d="M424,147.1l-9-3.1c-2.1-0.7-3.3-3.1-2.6-5.2l3.1-9c0.7-2.1,3.1-3.3,5.2-2.6l9,3.1c2.1,0.7,3.3,3.1,2.6,5.2
			l-3.1,9C428.5,146.6,426.1,147.8,424,147.1z"/>
		<path class="st40" d="M421.4,145.4c-0.5,0.5-0.5,0.5-0.5,0.5s0.8-5.2-0.1-7.2c-1-2-4.7,2-5.1,5.9c-0.5,4.9,0.9,6.2,2.9,6.3
			c0,0,0.5,0.1,1.1,0L421.4,145.4z"/>
		<g>
			<path class="st40" d="M456.5,150.9c-0.7-0.2-1.7-0.8-2.3-2.5c-1.3-3.2-2.2-3.8-2.8-4.2c-0.6-0.4,0.3-1.8,2.1,0
				c0.6,0.6,1,1,1.3,1.2L456.5,150.9z"/>
			<path class="st32" d="M453.4,147.1l-9-3.1c-2.1-0.7-3.3-3.1-2.6-5.2l3.1-9c0.7-2.1,3.1-3.3,5.2-2.6l9,3.1
				c2.1,0.7,3.3,3.1,2.6,5.2l-3.1,9C457.9,146.6,455.6,147.8,453.4,147.1z"/>
			<path class="st40" d="M454.7,145.4c0.5,0.5,0.5,0.5,0.5,0.5s-0.8-5.2,0.1-7.2c1-2,4.7,2,5.1,5.9c0.5,4.9-0.9,6.2-2.9,6.3
				c0,0-0.5,0.1-1.1,0L454.7,145.4z"/>
		</g>
		<g>
			<path class="st40" d="M416.1,149.4c-0.2,0.9-0.5,2-0.7,3.2c-0.1,0.6-0.2,1.2-0.3,1.9c-0.1,0.7-0.1,1.3-0.2,2
				c-0.1,0.7,0,1.4-0.1,2.1c0,0.7,0,1.4,0,2.2c0.1,0.7,0.1,1.5,0.2,2.2c0.1,0.7,0.2,1.5,0.3,2.2c0.5,2.9,1.5,5.6,2.5,7.6
				c0.2,0.5,0.5,1,0.8,1.4c0.3,0.4,0.5,0.8,0.7,1.2c0.5,0.7,0.8,1.2,1,1.5c1.2,1.5,2.4,2.2,3.5,2.3c1.1,0.1,2-0.5,2.7-1.6
				c1.4-2.2,1.3-3.5-0.3-5.5c-0.2-0.2-0.4-0.5-0.8-1c-0.2-0.2-0.4-0.5-0.6-0.8c-0.2-0.3-0.4-0.6-0.7-1c-0.9-1.4-1.9-3.4-2.6-5.7
				c-0.2-0.6-0.4-1.1-0.6-1.7c-0.2-0.6-0.3-1.2-0.5-1.8c-0.2-0.6-0.2-1.2-0.4-1.9c-0.1-0.6-0.3-1.2-0.3-1.8
				c-0.1-0.6-0.2-1.2-0.2-1.8c-0.1-0.6-0.2-1.2-0.2-1.7c-0.1-1.1-0.2-2.1-0.3-3L416.1,149.4z"/>
		</g>
		<path class="st23" d="M427.4,216.6c0,0,3.3,7.1,10.9,7.5c9.9,0.6,12.2-3.8,11-11.9C449.3,212.3,433.5,209.6,427.4,216.6z"/>
		<path class="st29" d="M454.8,260.1c-1.2,0.1-2.9,0.3-4.1,2.7c-0.4,0.8-0.4,1.6-0.3,2.2c0.3,1.2,1.4,2,2.6,2l4.3,0
			c1.6,0,3-1.5,2.6-3.1c-0.1-0.4-0.2-0.7-0.4-1.1C458.6,261,456.6,260,454.8,260.1z"/>
		<g>
			<g>
				<path class="st23" d="M457,261.5c0.2-5.9-0.4-15.4-1.4-23.8c-1-8.5-2.3-15.9-2.8-17.8c-1.1-5-3.3-6.7-6.8-5.8
					c-3.5,0.9-4.6,3.3-3.5,8.1c0.5,1.9,2.2,9,4.2,17.2c2,8.1,4.2,17.3,6,22.8L457,261.5z"/>
			</g>
		</g>
		<path class="st29" d="M426.3,261.1c-1.2,0.1-2.9,0.4-4.1,2.8c-0.7,1.5-0.2,2.7,0.3,3.4c0.5,0.3,0.9,0.5,1.4,0.7l5.8-0.1
			c0.9,0,1.6-0.7,1.7-1.5c0.1-0.8,0-1.7-0.5-2.6C430.1,261.9,428.1,260.9,426.3,261.1z"/>
		<g>
			<g>
				<path class="st23" d="M429.4,262.9c1.5-5.9,3-15.4,4.6-23.9c0.8-4.2,1.5-8.2,2.2-11.2c0.7-3.1,1.3-5.3,1.5-6.2
					c0.6-2.4,0.7-4.1,0.2-5.4c-0.5-1.3-1.5-2.3-3.2-2.9c-1.7-0.6-3.1-0.5-4.4,0.4c-1.2,0.9-2.2,2.7-2.8,5.4c-0.2,1-0.8,3.5-1.2,6.9
					c-0.5,3.3-0.9,7.5-1.2,11.9c-0.6,8.8-0.6,18.6,0.1,24.6L429.4,262.9z"/>
			</g>
		</g>
		<path class="st29" d="M435,176.7c0.9,0.1,5.6,2.4,15.5-8.5c0,0,4.8,6,5.4,12.2c0,0-2.6,3.5-6.4,3.4c0,0-1.4,18.3,3.8,31.8
			c0,0-11.8,6.8-25.9,1.1c0,0,0.1-13.3-0.2-29.7c0,0-4.4-1.5-7.6-7.8c0,0,2.2-6.1,5.9-8.3C425.4,170.8,431.5,176.1,435,176.7z"/>
		<path class="st40" d="M429.8,159.2c0,0-0.8-3-3.2-2.4c-2.4,0.6-0.9,6.3,1.1,6.6C429.8,163.7,429.8,159.2,429.8,159.2z"/>
		<path class="st40" d="M446.7,160c0,0,1.2-2.9,3.5-2c2.3,0.9,0.1,6.4-2,6.4C446.1,164.5,446.7,160,446.7,160z"/>
		<path class="st39" d="M428.1,156.4c0,0,1.3-6.6,8.5-7.7c7.2-1.1,11,1.8,12,8.2c1.1,6.4-3.4,12.9-10.3,12.5
			C431.4,169.1,426.8,163.1,428.1,156.4z"/>
	</g>
	<g>
		<rect x="596.7" y="229.3" class="st30" width="55.8" height="42.8"/>
		<polygon class="st45" points="611.5,220 596.7,229.3 652.5,229.3 637.6,220 		"/>
		<rect x="611.5" y="220" class="st30" width="26.1" height="9.3"/>
		<polygon class="st35" points="637.6,220 652.5,224.7 664.1,232.6 652.5,229.3 		"/>
		<polygon class="st35" points="611.5,220 595.3,224.7 583.7,232.6 596.7,229.3 		"/>
		<path class="st29" d="M623.5,234.3l-7.3-5c-1.7-1.2-2.2-3.6-1-5.3l5-7.3c1.2-1.7,3.6-2.2,5.3-1l7.3,5c1.7,1.2,2.2,3.6,1,5.3
			l-5,7.3C627.7,235.1,625.3,235.5,623.5,234.3z"/>
		<path class="st41" d="M609.3,215.7l-10.6-4.3c-2.5-1-3.7-3.9-2.7-6.5l4.3-10.6c1-2.5,3.9-3.7,6.5-2.7l10.6,4.3
			c2.5,1,3.7,3.9,2.7,6.5l-4.3,10.6C614.7,215.5,611.8,216.7,609.3,215.7z"/>
		<polygon class="st35" points="596.7,229.3 604.7,239.4 624.6,239.4 644,239.4 652.5,229.3 		"/>
	</g>
	<g>
		<g>
			<path class="st30" d="M710.9,149.9c-19.1,0-35.4-14.3-37.6-33.4c-0.1-1,0.7-1.9,1.6-2c0.9-0.1,1.8,0.6,2,1.5
				c2.1,18.7,19.1,32.1,37.8,30c15.3-1.8,27.4-13.5,29.8-28.7c0.3-0.9,1.2-1.5,2.1-1.4c0.9,0.2,1.5,1,1.4,1.9
				C745.2,136.3,729.4,149.9,710.9,149.9L710.9,149.9z"/>
			<polygon class="st30" points="681.8,123.1 675.3,117.4 669.5,123.9 669.2,118.7 674.9,112.2 681.4,117.9 			"/>
			<path class="st30" d="M746.5,109.8c-0.9,0-1.7-0.7-1.8-1.6c-2.1-18.7-19.1-32.1-37.8-30C691.4,80,679.1,92,677,107.5
				c-0.2,0.9-1.2,1.6-2.1,1.4c-0.9-0.2-1.5-1-1.5-1.9c2.9-20.7,22.1-35,42.7-32c16.9,2.4,30.1,15.9,32.2,32.9c0.1,1-0.6,1.9-1.6,2
				H746.5z"/>
			<polygon class="st30" points="739.9,101.2 746.4,106.9 752.2,100.3 752.5,105.6 746.7,112.2 740.2,106.4 			"/>
		</g>
	</g>
	<path class="st24" d="M257.3,96.2h-19.8c-6,0-10.9,4.9-10.9,10.9v14.1c0,4.8,3.1,8.8,7.3,10.3l0.3,7.5l9.8-6.9h13.3
		c6,0,10.9-4.9,10.9-10.9l0-14.1C268.1,101.1,263.3,96.2,257.3,96.2z"/>
	<g>
		<ellipse class="st22" cx="742.2" cy="203.7" rx="52.8" ry="8.7"/>
		<g>
			<path class="st24" d="M767.9,192.1H712c-2.2,0-4-1.8-4-4v-67.7c0-2.2,1.8-4,4-4h55.9c2.2,0,4,1.8,4,4V188
				C771.9,190.3,770.1,192.1,767.9,192.1z"/>
			<g>
				<rect x="722" y="126.2" class="st45" width="6" height="2.5"/>
				<rect x="731.3" y="126.2" class="st41" width="10.8" height="2.5"/>
				<rect x="726.1" y="131.4" class="st27" width="22.5" height="2.5"/>
				<rect x="751.9" y="131.4" class="st23" width="6" height="2.5"/>
				<rect x="726.1" y="136.7" class="st27" width="22.5" height="2.5"/>
				<rect x="751.9" y="136.7" class="st23" width="6" height="2.5"/>
				<rect x="726.1" y="142" class="st27" width="22.5" height="2.5"/>
				<rect x="751.9" y="142" class="st23" width="6" height="2.5"/>
				<rect x="722" y="147.2" class="st45" width="6" height="2.5"/>
				<rect x="731.3" y="147.2" class="st41" width="10.8" height="2.5"/>
				<rect x="726.1" y="152.5" class="st23" width="11.3" height="2.5"/>
				<rect x="740.7" y="152.5" class="st27" width="17.3" height="2.5"/>
				<rect x="726.1" y="157.7" class="st23" width="11.3" height="2.5"/>
				<rect x="740.7" y="157.7" class="st27" width="17.3" height="2.5"/>
				<rect x="726.1" y="163" class="st23" width="11.3" height="2.5"/>
				<rect x="740.7" y="163" class="st27" width="17.3" height="2.5"/>
			</g>
			<g>
				<polygon class="st44" points="776.5,201.7 703.4,201.7 703.4,150.6 739.9,181.4 776.5,150.6 				"/>
				<polygon class="st32" points="703.4,201.7 739.9,159.2 776.5,201.7 				"/>
			</g>
		</g>
	</g>
	<g>
		<ellipse class="st22" cx="101.7" cy="204.8" rx="45.7" ry="7.5"/>
		<path class="st32" d="M80,169.4c0.5,1.7,1.2,3.3,2,4.9l-6.2,8.8l12.3,12.3l8.8-6.2c1.6,0.8,3.2,1.5,4.9,2l1.8,10.6h8.7h8.7
			l1.8-10.6c1.7-0.5,3.3-1.2,4.9-2l8.8,6.2l12.3-12.3l-6.2-8.8c0.8-1.6,1.5-3.2,2-4.9l10.6-1.8v-17.5l-10.6-1.8
			c-0.5-1.7-1.2-3.3-2-4.9l6.2-8.8l-12.3-12.3l-8.8,6.2c-1.6-0.8-3.2-1.5-4.9-2L121,116h-8.7h-8.7l-1.8,10.6c-1.7,0.5-3.3,1.2-4.9,2
			l-8.8-6.2l-12.3,12.3l6.2,8.8c-0.8,1.6-1.5,3.2-2,4.9l-10.6,1.8v17.5L80,169.4z"/>
		<g id="XMLID_1_">
			<g>
				<circle class="st27" cx="112.3" cy="158.9" r="25.8"/>
			</g>
		</g>
		<g>
			<path class="st30" d="M120.4,140.9l-9.8,9.8c-2.6,2.6-2.6,6.9,0,9.5l0,0c2.6,2.6,6.9,2.6,9.5,0l10-10c3.7,7.4,2.4,16.7-3.8,22.8
				c-5.6,5.6-13.8,7.2-20.8,4.6l-26,26c-3.3,3.3-8.7,3.6-12,0.4c-3.5-3.3-3.6-8.8-0.2-12.2l26.3-26.3c-2.5-7-1-15.2,4.6-20.8
				C104.2,138.9,113.1,137.6,120.4,140.9z"/>
			<path class="st45" d="M75.6,195.5L75.6,195.5c1.2,1.2,3,1.2,4.2,0l16.7-16.7c1.2-1.2,1.2-3,0-4.2l0,0c-1.2-1.2-3-1.2-4.2,0
				l-16.7,16.7C74.5,192.5,74.5,194.4,75.6,195.5z"/>
		</g>
	</g>
	<g>
		<g>
			<path class="st27" d="M209.1,278c-0.4,0-0.7-0.1-1.1-0.2c-2.4-1-4.7-2.2-6.8-3.9c-6.7-5.3-10.7-13.8-10.7-22.8V238
				c0-1.5,1.1-2.8,2.6-3c6.9-0.9,11.6-3.3,14.3-5.2c0.5-0.4,1.1-0.5,1.7-0.5c0.6,0,1.2,0.2,1.7,0.5c4.2,2.8,9,4.5,14.3,5.2
				c1.5,0.2,2.6,1.5,2.6,3v13.1c0,9-4,17.5-10.8,22.8c-2,1.6-4.2,2.9-6.7,3.9C209.9,277.9,209.5,278,209.1,278z"/>
			<g>
				<path class="st23" d="M209.1,232.3c3.3,2.2,8.3,4.8,15.6,5.7v13.1c0,8.1-3.6,15.7-9.6,20.4c-1.9,1.6-3.9,2.7-6,3.5
					c-2.1-0.8-4-1.9-6-3.5c-6.1-4.8-9.6-12.4-9.6-20.4V238C200.7,237,205.8,234.6,209.1,232.3 M209.1,226.3c-1.2,0-2.4,0.4-3.4,1.1
					c-2.4,1.7-6.6,3.9-12.9,4.7c-3,0.4-5.2,2.9-5.2,6v13.1c0,9.9,4.4,19.3,11.9,25.1c2.3,1.9,4.8,3.3,7.5,4.4
					c0.7,0.3,1.4,0.4,2.2,0.4c0.8,0,1.5-0.1,2.3-0.4c2.8-1.1,5.2-2.6,7.4-4.3c7.4-5.9,11.9-15.3,11.9-25.1V238c0-3-2.2-5.6-5.2-6
					c-4.9-0.6-9.2-2.2-13-4.7C211.4,226.6,210.2,226.3,209.1,226.3L209.1,226.3z"/>
			</g>
		</g>
		<polyline class="st46" points="202.2,254.1 207,257.9 215.9,247.6 		"/>
	</g>
	<g>
		<g>
			<g>
				<path class="st23" d="M103.8,49c-2.4,2.2-5.7,2.6-8.6,1.3c-1.1-0.5-2-1.2-2.6-2.1l-4,8.7c-0.1,0.4,0,0.7,0.1,0.8
					s0.4,0.4,0.8,0.3l2.9-0.8c0.3-0.1,0.7-0.1,1.1-0.1c1.3,0,2.6,0.8,3.3,2.1l1.3,2.6c0.1,0.4,0.5,0.4,0.7,0.4s0.5,0,0.7-0.4l6.3-14
					C105,48.1,104.4,48.5,103.8,49z"/>
			</g>
		</g>
		<g>
			<g>
				<path class="st23" d="M125.9,56.9l-4-8.7c-0.7,0.8-1.6,1.6-2.6,2.1c-2.9,1.5-6.2,0.9-8.6-1.3c-0.5-0.5-1.2-0.9-1.8-1.1l6.3,14
					c0.1,0.4,0.5,0.4,0.7,0.4s0.5,0,0.7-0.4l1.3-2.6c0.7-1.3,2-2.1,3.3-2.1c0.3,0,0.7,0,1.1,0.1l2.9,0.8c0.4,0.1,0.7-0.1,0.8-0.3
					C125.9,57.7,126.1,57.3,125.9,56.9z"/>
			</g>
		</g>
		<g>
			<g>
				<path class="st27" d="M115.6,51c-2,0-3.8-0.7-5.3-2.1c-0.8-0.7-2-1.2-3.2-1.2c-1.3,0-2.4,0.4-3.3,1.2c-1.4,1.3-3.2,2-5.2,2
					c-1.1,0-2.3-0.3-3.4-0.7c0,0-0.1,0-0.1,0c-2.1-1.1-4.5-3.6-4.3-7.5c0,0,0-0.1,0-0.1c0.2-2.4-1.5-4.5-4-4.9
					c-3.2-0.5-5.6-2.7-6.4-5.9c-0.8-3.2,0.5-6.4,3.2-8.2c2-1.3,2.6-4.1,1.4-6.2c-1.9-3.4-0.9-6.8,0.6-8.8c1.4-1.8,3.8-2.9,6.1-2.9
					c0.8,0,1.5,0.1,2.2,0.3c0.5,0.2,1,0.2,1.4,0.2c1.9,0,3.6-1.2,4.3-2.9c1.5-3.7,4.7-4.9,7.3-4.9s5.8,1.3,7.3,4.9
					c0.7,1.8,2.4,3,4.3,3c0.5,0,0.9-0.1,1.4-0.2c0.8-0.2,1.5-0.3,2.3-0.3c2.4,0,4.7,1.1,6.1,2.9c0,0,0.1,0.1,0.1,0.1
					c1.9,2.7,2.1,5.9,0.6,8.6c-1.2,2.1-0.5,4.9,1.4,6.2c0,0,0.1,0,0.1,0.1c3.1,2.3,3.7,5.8,2.8,8.3c-0.8,3.1-3.2,5.3-6.3,5.8
					c-2.3,0.4-4.1,2.6-4,5c0.3,3.2-1.4,6.2-4.3,7.6C118,50.7,116.8,51,115.6,51C115.6,51,115.6,51,115.6,51z M107.3,12.9
					c-7,0-12.7,5.7-12.7,12.7s5.7,12.7,12.7,12.7S120,32.6,120,25.6S114.3,12.9,107.3,12.9z"/>
				<path class="st24" d="M129,26c-3.3-2.2-4.4-6.7-2.4-10.2c1.2-2.1,0.5-4.1-0.4-5.4c-0.9-1.2-2.9-2.2-5.1-1.6
					c-3.8,1.2-7.9-0.8-9.4-4.5c-0.9-2.2-2.9-3-4.5-3c-1.6,0-3.6,0.8-4.5,3c-1.5,3.7-5.5,5.7-9.4,4.5c-2.2-0.7-4.2,0.4-5.1,1.6
					c-0.9,1.2-1.6,3.3-0.4,5.4c2,3.4,0.9,7.9-2.4,10.2c-2,1.3-2.4,3.4-2,5c0.4,1.6,1.6,3.3,4,3.7c4,0.7,6.9,4.2,6.5,8.2
					c-0.1,2.4,1.3,4,2.6,4.6c1.5,0.7,3.6,0.8,5.3-0.8c1.5-1.3,3.3-2,5.3-2c1.8,0,3.8,0.7,5.3,2c1.7,1.6,4,1.5,5.3,0.8
					c1.5-0.7,2.9-2.2,2.6-4.6c-0.3-4,2.6-7.5,6.5-8.2c2.4-0.4,3.6-2.1,4-3.7C131.3,29.6,131,27.5,129,26z M107.3,41.3
					c-8.6,0-15.7-7-15.7-15.7s7-15.7,15.7-15.7s15.7,7,15.7,15.7S115.8,41.3,107.3,41.3z"/>
			</g>
		</g>
		<g>
			<g>
				<path class="st23" d="M107.3,12.9c-7,0-12.8,5.7-12.8,12.8s5.7,12.8,12.8,12.8c7,0,12.8-5.7,12.8-12.8S114.3,12.9,107.3,12.9z
					 M113.5,23.4l-6.8,7.1c-0.2,0.2-0.5,0.4-0.9,0.4c-0.1,0-0.1,0-0.3,0c-0.4,0.1-0.8-0.1-1-0.5l-2.9-3c-0.6-0.6-0.5-1.5,0-2
					c0.6-0.6,1.5-0.5,2,0l1.8,1.8l5.8-6c0.6-0.6,1.5-0.7,2-0.1C114,21.8,113.9,22.8,113.5,23.4z"/>
			</g>
		</g>
	</g>
	<g>
		<path class="st30" d="M291.2,71.3h-26.2c-7.9,0-14.3,6.4-14.3,14.3v18.6c0,7.9,6.4,14.3,14.3,14.3h17.5l12.9,9.2l0.5-9.9
			c5.6-1.9,9.7-7.3,9.7-13.5V85.6C305.6,77.7,299.1,71.3,291.2,71.3z"/>
		<g>
			<path class="st27" d="M271.8,103.1l-9.8-6.6V94l9.8-7.4v4.4l-6.1,4.1l6.1,3.7V103.1z"/>
			<path class="st27" d="M282.5,84l-5.3,22h-3.4l5.3-22H282.5z"/>
			<path class="st27" d="M284.5,98.8l6.1-3.7l-6.1-4.1v-4.4l9.8,7.4v2.5l-9.8,6.6V98.8z"/>
		</g>
	</g>
	<g>
		<g>
			<g>
				<path class="st24" d="M781.4,23.4c-0.6-0.6-1.8-1.2-2.4-1.8c-2.4-1.2-4.7-2.4-7.6-2.4c-3.5,0-7.1,1.8-10,4.1l-12.9,12.9
					c-2.4,2.9-4.1,6.5-4.1,10c0,7.6,6.5,14.1,14.1,14.1c3.5,0,7.1-1.2,10-4.1L779,45.7l0.6-0.6c0-0.6-0.6-1.2-1.2-1.2h-0.6
					c-2.4,0-4.1-0.6-6.5-1.2c-0.6,0-0.6,0-1.2,0l-7.6,7.6c-2.4,2.4-6.5,2.4-8.8,0c-2.4-2.4-2.4-6.5,0-8.8l12.9-12.9
					c2.4-2.4,6.5-2.4,8.8,0c1.8,1.8,4.1,1.8,5.9,0c0.6-0.6,1.2-1.8,1.2-2.4C782.6,25.1,782.6,24,781.4,23.4z"/>
			</g>
		</g>
		<g>
			<g>
				<path class="st23" d="M800.8,4c-5.3-5.3-14.7-5.3-20,0l-10.6,10.6c-0.6,0.6-0.6,0.6,0,1.2c0,0.6,0.6,0.6,1.2,0.6h0.6
					c2.4,0,4.1,0.6,6.5,1.2c0.6,0,0.6,0,1.2,0l7.6-7.6c2.4-2.4,6.5-2.4,8.8,0s2.4,6.5,0,8.8l-9.4,9.4l0,0l-3.5,3.5
					c-2.4,2.4-6.5,2.4-8.8,0c-1.8-1.8-4.1-1.8-5.9,0c-0.6,0.6-1.2,1.8-1.2,2.4c0,1.2,0.6,2.4,1.2,2.9c1.2,1.2,2.4,2.4,4.1,2.9h0.6
					h0.6h0.6h0.6c0.6,0,0.6,0,1.2,0c0.6,0,1.2,0,1.8,0h0l0,0h0.6h0.6h0.6h0.6h0.6h0.6l0,0c2.4-0.6,4.7-1.8,6.5-3.5l12.9-12.9
					C806.7,18.1,806.7,9.3,800.8,4z"/>
			</g>
		</g>
	</g>
</g>
</svg>
